<?xml version="1.0" encoding="utf-8"?>
<!-- Generator: Adobe Illustrator 16.0.0, SVG Export Plug-In . SVG Version: 6.00 Build 0)  -->
<!DOCTYPE svg PUBLIC "-//W3C//DTD SVG 1.1//EN" "http://www.w3.org/Graphics/SVG/1.1/DTD/svg11.dtd">
<svg version="1.1" id="Calque_1" xmlns="http://www.w3.org/2000/svg" xmlns:xlink="http://www.w3.org/1999/xlink" x="0px" y="0px"
	 width="220px" height="512px" viewBox="0 0 220 512" enable-background="new 0 0 220 512" xml:space="preserve">
<g>
	<path fill="#4589B9" d="M74.222,248.634c-0.681-5.419-1.261-11.331-1.875-17.589c-1.895-19.324-4.043-41.226-10.275-60.897
		c-0.351-1.107-1.417-1.825-2.574-1.738c-1.157,0.088-2.102,0.962-2.28,2.109c-1.173,7.545-2.352,14.901-3.506,22.102
		c-2.859,17.838-5.531,34.552-7.604,50.808c-0.973,0.151-1.803,0.87-2.046,1.886c-0.289,1.203,0.35,2.406,1.451,2.875
		c-2.102,17.423-3.455,34.383-3.52,51.697c-0.005,1.381,1.11,2.505,2.491,2.51c0.003,0,0.006,0,0.009,0
		c1.376,0,2.495-1.113,2.5-2.49c0.063-17.021,1.395-33.742,3.464-50.938c1.138,0.081,2.317,0.13,3.543,0.13
		c4.983,0,10.51-0.616,15.075-1.401c0.063,0.517,0.122,1.05,0.186,1.559c1.157,9.211,1.756,18.63,2.336,27.739
		c0.4,6.287,0.814,12.788,1.407,19.133c0.128,1.375,1.355,2.377,2.722,2.257c1.375-0.129,2.385-1.347,2.257-2.722
		c-0.586-6.271-0.998-12.734-1.396-18.985C76.002,267.494,75.398,257.998,74.222,248.634z M51.077,244.003
		c2.064-16.173,4.725-32.821,7.573-50.591c0.563-3.511,1.131-7.06,1.702-10.648c3.82,16.153,5.501,33.298,7.019,48.769
		c0.38,3.876,0.75,7.601,1.137,11.187C63.004,243.68,56.212,244.322,51.077,244.003z"/>
	<path fill="#4589B9" d="M139.481,293.465c-0.008-0.034-0.009-0.068-0.019-0.103c-4.896-16.835-4.007-45.384-3.294-68.324
		c0.121-3.885,0.237-7.606,0.318-11.082c0.033-1.38-1.06-2.525-2.44-2.558c-1.368-0.034-2.525,1.061-2.558,2.441
		c-0.082,3.463-0.197,7.172-0.317,11.043c-0.318,10.232-0.67,21.564-0.531,32.546c-5.52-1.792-10.542-0.252-14.088,4.461
		c-6.761,8.986-6.203,27.159,1.066,34.724c1.73,1.801,4.69,3.924,9.021,3.924c3.186-0.001,7.115-1.149,11.843-4.421
		c0.023-0.017,0.041-0.037,0.063-0.054c0.079-0.059,0.151-0.123,0.223-0.189c0.051-0.048,0.101-0.095,0.146-0.146
		c0.062-0.067,0.115-0.14,0.168-0.214c0.042-0.058,0.084-0.115,0.12-0.177c0.047-0.077,0.085-0.158,0.122-0.24
		c0.028-0.063,0.058-0.124,0.081-0.188c0.032-0.089,0.055-0.18,0.077-0.272c0.015-0.063,0.031-0.125,0.041-0.188
		c0.015-0.094,0.021-0.188,0.024-0.283c0.003-0.067,0.006-0.135,0.003-0.203c-0.003-0.088-0.016-0.177-0.028-0.266
		C139.513,293.617,139.501,293.541,139.481,293.465z M121.224,293.148c-5.634-5.861-5.999-21.177-0.675-28.253
		c2.589-3.444,5.935-4.112,10.205-2.048c0.326,11.201,1.271,21.772,3.416,30.107C128.687,296.311,124.333,296.384,121.224,293.148z"
		/>
	<path fill="#4589B9" d="M94.493,257.398c-1.381,0-2.5,1.119-2.5,2.5c0,5.696-0.275,13.852-0.541,21.738
		c-0.175,5.194-0.357,10.565-0.458,15.205c-0.03,1.38,1.064,2.523,2.445,2.554c0.019,0.001,0.037,0.001,0.056,0.001
		c1.355,0,2.469-1.084,2.499-2.445c0.101-4.609,0.282-9.966,0.457-15.146c0.268-7.929,0.544-16.126,0.544-21.907
		C96.993,258.518,95.874,257.398,94.493,257.398z"/>
	<path fill="#4589B9" d="M95.31,243.407c-0.271,0.02-0.56-0.004-0.838-0.027c-0.696-0.057-2.324-0.189-3.212,1.318
		c-0.387,0.656-0.451,1.296-0.332,1.915c-0.093,1.4,0.807,2.287,1.475,2.826c0.25,0.29,0.563,0.516,0.909,0.664
		c0.37,0.199,0.776,0.296,1.18,0.296c0.737,0,1.466-0.324,1.96-0.946c0.364-0.459,0.542-1.007,0.542-1.551
		c0.658-0.494,1.058-1.303,0.993-2.184C97.885,244.339,96.69,243.305,95.31,243.407z"/>
	<path fill="#4589B9" d="M183.926,294.576c-0.322-1.343-1.672-2.171-3.014-1.85c-7.91,1.895-16.886,3.035-23.505-2.856
		c-1.366-1.218-2.533-2.934-3.388-4.851c9.967,1.952,14.708-3.825,16.033-5.857c2.989-4.584,2.825-10.508-0.383-13.78
		c-1.668-1.701-6.58-5.017-16.12,0.939c-3.486,2.177-5.618,5.858-6.001,10.368c-0.517,6.071,2.17,13.026,6.533,16.914
		c4.796,4.271,10.439,5.636,16.008,5.636c4.167,0,8.293-0.766,11.986-1.649C183.419,297.268,184.247,295.919,183.926,294.576z
		 M152.547,279.479c-0.073-0.807-0.081-1.602-0.017-2.365c0.175-2.054,0.953-4.856,3.668-6.552c4.486-2.8,8.188-3.427,9.901-1.68
		c1.553,1.584,1.447,4.97-0.235,7.549C164.646,278.298,160.975,282.184,152.547,279.479z"/>
</g>
</svg>
