<?xml version="1.0" encoding="utf-8"?>
<!-- Generator: Adobe Illustrator 16.0.0, SVG Export Plug-In . SVG Version: 6.00 Build 0)  -->
<!DOCTYPE svg PUBLIC "-//W3C//DTD SVG 1.1//EN" "http://www.w3.org/Graphics/SVG/1.1/DTD/svg11.dtd">
<svg version="1.1" id="Calque_1" xmlns="http://www.w3.org/2000/svg" xmlns:xlink="http://www.w3.org/1999/xlink" x="0px" y="0px"
	 width="70.25px" height="50px" viewBox="0 0 70.25 50" enable-background="new 0 0 70.25 50" xml:space="preserve">
<g>
	<path fill="none" stroke="#478ABA" stroke-width="2" stroke-linecap="round" stroke-linejoin="round" stroke-miterlimit="10" d="
		M2,48.715c1.462-11.857,1.922-19.797,3.029-27.979C5.902,14.272,6.223,7.266,8.014,1c4.038,10.006,3.682,21.662,5.888,32.023
		c0.829,3.896,1.684,10.053,3.107,15.525"/>
	<path fill="none" stroke="#478ABA" stroke-width="2" stroke-linecap="round" stroke-linejoin="round" stroke-miterlimit="10" d="
		M5.203,25.316c3.531-0.458,4.162-0.302,7.063-0.917"/>
</g>
<g>
	<path fill="none" stroke="#478ABA" stroke-width="2" stroke-linecap="round" stroke-linejoin="round" stroke-miterlimit="10" d="
		M25.881,2.236c-0.059,4.354-0.232,25.029,0.294,31.422c0.371,4.498,0.086,9.023,0.588,13.459"/>
	<path fill="none" stroke="#478ABA" stroke-width="2" stroke-linecap="round" stroke-linejoin="round" stroke-miterlimit="10" d="
		M20.472,2.831c3.002-0.43,8.611-1.363,11.625-1.189"/>
	<path fill="none" stroke="#478ABA" stroke-width="2" stroke-linecap="round" stroke-linejoin="round" stroke-miterlimit="10" d="
		M20.704,48.08c2.312,0.1,9.112-0.316,11.161-0.08"/>
</g>
<g>
	<path fill="none" stroke="#478ABA" stroke-width="2" stroke-linecap="round" stroke-linejoin="round" stroke-miterlimit="10" d="
		M36.149,1.917c-0.055,1.518,0.537,26.157,0.84,31.897c0.203,3.84,0.569,10.551,0.715,14.359"/>
	<path fill="none" stroke="#478ABA" stroke-width="2" stroke-linecap="round" stroke-linejoin="round" stroke-miterlimit="10" d="
		M36.268,1.536c1.578-0.555,4.771,0.989,6.079,1.651c9.536,4.826,15.019,36.698-4.254,45.11"/>
</g>
<g>
	<path fill="none" stroke="#478ABA" stroke-width="2" stroke-linecap="round" stroke-linejoin="round" stroke-miterlimit="10" d="
		M55.254,2.024c-0.225,11.698-0.611,23.556,0.203,35.263c0.229,3.26-0.139,7.35,0.797,10.404"/>
	<g>
		<path fill="none" stroke="#478ABA" stroke-width="2" stroke-linecap="round" stroke-linejoin="round" stroke-miterlimit="10" d="
			M55.254,2.252C55.977,1.494,65.838,1.89,68.525,1.98"/>
		<path fill="none" stroke="#478ABA" stroke-width="2" stroke-linecap="round" stroke-linejoin="round" stroke-miterlimit="10" d="
			M55.088,25.252c1.943,0,5.492,0,7.438,0"/>
		<path fill="none" stroke="#478ABA" stroke-width="2" stroke-linecap="round" stroke-linejoin="round" stroke-miterlimit="10" d="
			M56.254,47.918c4.209,0,7.459-0.234,10.834-0.584"/>
	</g>
</g>
</svg>
