<?xml version="1.0" encoding="utf-8"?>
<!-- Generator: Adobe Illustrator 16.0.0, SVG Export Plug-In . SVG Version: 6.00 Build 0)  -->
<!DOCTYPE svg PUBLIC "-//W3C//DTD SVG 1.1//EN" "http://www.w3.org/Graphics/SVG/1.1/DTD/svg11.dtd">
<svg version="1.1" id="Calque_1" xmlns="http://www.w3.org/2000/svg" xmlns:xlink="http://www.w3.org/1999/xlink" x="0px" y="0px"
	 width="535px" height="512px" viewBox="0 0 535 512" enable-background="new 0 0 535 512" xml:space="preserve">
<g>
	<path fill="#41B7B7" d="M176.274,269.978c-0.717-5.839-1.394-11.354-2.135-15.687c-2.188-12.789-3.462-26.493-4.693-39.747
		c-2.122-22.833-4.316-46.444-11.226-67.746c-0.347-1.069-1.363-1.765-2.488-1.726c-1.123,0.049-2.075,0.842-2.327,1.938
		c-3.49,15.196-4.928,31.7-6.318,47.661c-0.538,6.176-1.094,12.562-1.757,18.659c-0.787,7.235-1.89,14.221-3.065,21.556
		c-0.322,0.54-0.438,1.191-0.292,1.831c-3.162,19.73-6.358,40.199-3.98,67.496c0.12,1.376,1.335,2.401,2.708,2.273
		c1.375-0.119,2.394-1.332,2.274-2.707c-2.308-26.495,0.777-46.555,3.869-65.857c2.271-0.814,4.521-1.42,6.876-2.042
		c3.985-1.052,8.086-2.15,12.352-4.385c0.843,7.991,1.824,15.959,3.138,23.639c0.721,4.216,1.391,9.674,2.101,15.454
		c1.513,12.324,3.228,26.294,6.324,36.771c0.321,1.088,1.317,1.793,2.396,1.793c0.234,0,0.473-0.033,0.709-0.104
		c1.324-0.392,2.08-1.782,1.689-3.105C179.451,295.86,177.763,282.109,176.274,269.978z M152.444,231.045
		c-1.543,0.407-3.116,0.828-4.713,1.314c0.983-6.207,1.891-12.238,2.571-18.49c0.668-6.151,1.227-12.563,1.767-18.765
		c1.071-12.3,2.171-24.925,4.217-36.927c4.587,18.154,6.41,37.767,8.182,56.829c0.34,3.662,0.686,7.358,1.051,11.062
		C161.132,228.738,156.907,229.867,152.444,231.045z"/>
	<path fill="#41B7B7" d="M238.064,258.479c-3.683-1.264-7.097-0.722-9.734,1.407c-0.203-0.061-0.413-0.106-0.635-0.113
		c-1.375-0.033-2.535,1.038-2.58,2.418c-0.021,0.633-0.031,1.363-0.034,2.165c-0.061,0.315-0.06,0.632,0,0.939
		c0.037,10.583,1.291,32.817,2.318,51.05c0.728,12.901,1.479,26.229,1.369,28.499c-0.088,0.316-0.116,0.655-0.069,1.001
		c0.167,1.257,1.241,2.17,2.475,2.17c0.11,0,0.221-0.007,0.333-0.021c2.35-0.313,2.304-2.427,2.251-4.874
		c-0.031-1.439-0.112-3.524-0.248-6.375c-0.254-5.324-0.674-12.783-1.12-20.681c-0.417-7.393-0.871-15.444-1.265-23.099
		c16.469-0.175,20.319-7.559,21.124-12.065C253.885,271.73,245.827,261.137,238.064,258.479z M247.327,280.021
		c-0.908,5.089-6.734,7.87-16.454,7.945c-0.447-9.141-0.772-17.313-0.794-22.541c1.501-2.429,3.582-3.171,6.366-2.216
		C242.157,265.165,248.46,273.669,247.327,280.021z"/>
	<path fill="#41B7B7" d="M280.229,280.693c-2.015-1.711-4.067-3.455-5.984-5.243c3.147-0.59,5.713-2.195,7.391-4.715
		c2.713-4.074,2.6-9.751-0.28-14.127c-2.992-4.544-8.114-6.527-14.056-5.438c-1.234,0.226-2.109,1.331-2.047,2.584
		c0.587,11.729,0.24,24.04-0.2,36.673c-0.048,1.38,1.032,2.537,2.412,2.585c1.388,0.087,2.537-1.031,2.585-2.411
		c0.14-3.996,0.27-7.961,0.364-11.889c2.114,2,4.368,3.915,6.578,5.792c3.19,2.711,6.49,5.515,9.154,8.413
		c0.493,0.536,1.166,0.808,1.842,0.808c0.604,0,1.211-0.218,1.691-0.659c1.016-0.935,1.082-2.517,0.148-3.533
		C286.954,286.408,283.535,283.503,280.229,280.693z M270.548,270.678c0.043-5.006-0.003-9.943-0.195-14.8c0.019,0,0.036,0,0.055,0
		c3.839,0,5.854,2.088,6.771,3.48c1.764,2.68,1.886,6.219,0.295,8.606C276.143,269.961,273.713,270.898,270.548,270.678z"/>
	<path fill="#41B7B7" d="M310.645,258.308c-5.586,0-10.473,4.501-12.16,11.199c-1.772,7.034,0.288,16.203,8.885,20.829
		c2.497,1.345,4.891,2.026,7.114,2.026c4.467,0,8.104-2.753,9.977-7.552c2.544-6.518,1.575-16.974-4.493-22.561
		C316.915,259.635,313.778,258.308,310.645,258.308z M319.803,282.992c-0.778,1.993-2.333,4.37-5.319,4.37
		c-1.388,0-2.983-0.481-4.744-1.429c-6.654-3.581-7.61-10.429-6.406-15.205c0.931-3.693,3.552-7.421,7.312-7.421
		c1.906,0,3.948,0.922,6.002,2.68C320.892,269.897,321.717,278.088,319.803,282.992z"/>
	<path fill="#41B7B7" d="M348.672,263.364c-4.427-3.499-9.179-3.842-13.039-0.935c-3.444,2.593-2.457,10.916,1.059,28.592
		c0.542,2.721,1.01,5.076,1.105,6.02c0.002,0.033,0.005,0.066,0.009,0.1c0.238,2.562,0.467,4.874,0.679,7.016
		c1.161,11.72,1.801,18.175,0.537,32.186c-0.124,1.375,0.891,2.591,2.266,2.715c0.076,0.007,0.152,0.01,0.228,0.01
		c1.279,0,2.37-0.977,2.487-2.275c1.306-14.481,0.649-21.104-0.541-33.128c-0.126-1.268-0.258-2.596-0.394-4
		c9.608,0.51,13.297-4.359,14.68-7.521C361.637,283.251,355.963,269.13,348.672,263.364z M353.167,290.137
		c-1.528,3.491-5.111,4.992-10.688,4.475c-0.212-1.194-0.518-2.731-0.883-4.565c-1.143-5.746-4.156-20.896-2.795-23.741
		c0.874-0.635,3.084-1.934,6.77,0.982C351.332,271.843,356.064,283.515,353.167,290.137z"/>
	<path fill="#41B7B7" d="M385.085,260.562c-0.079-0.057-0.161-0.109-0.246-0.157c-2.407-1.354-4.842-2.041-7.236-2.041
		c-8.068,0-13.183,7.477-13.898,14.511c-0.671,6.594,2.365,15.079,13.132,17.294c1.265,0.26,2.493,0.392,3.651,0.392
		c0.001,0,0,0,0.001,0c5.597,0,9.8-3.051,11.531-8.37C394.425,274.799,391.313,265.098,385.085,260.562z M387.265,280.642
		c-1.062,3.264-3.342,4.918-6.777,4.918c-0.82,0-1.711-0.098-2.645-0.29c-9.429-1.938-9.398-9.591-9.164-11.89
		c0.501-4.924,3.976-10.017,8.924-10.017c1.485,0,3.052,0.446,4.656,1.327C387.17,268.364,388.816,275.874,387.265,280.642z"/>
	<path fill="#41B7B7" d="M421.438,276.093c-1.25-6.021-6.61-6.74-10.524-7.266c-4.794-0.643-6.652-1.21-7.162-4.729
		c-0.12-1.145,1.221-5.468,3.644-6.497c2.122-0.907,5.277,0.957,8.879,5.237c0.889,1.057,2.467,1.192,3.522,0.304
		c1.057-0.889,1.192-2.466,0.304-3.522c-6.772-8.05-11.896-7.961-15.002-6.466c-4.761,2.289-6.773,8.971-6.272,11.799
		c1.102,7.445,7.311,8.279,11.423,8.831c4.184,0.562,5.81,0.993,6.294,3.326c0.486,2.343,0.05,4.262-1.336,5.869
		c-2.9,3.366-9.49,4.844-14.505,4.555c-1.354-0.083-2.56,0.977-2.638,2.354c-0.078,1.379,0.976,2.56,2.354,2.638
		c0.504,0.028,1.021,0.043,1.547,0.043c5.991,0,13.201-1.884,17.029-6.325C421.395,283.459,422.239,279.949,421.438,276.093z"/>
</g>
</svg>
