<?xml version="1.0" encoding="utf-8"?>
<!-- Generator: Adobe Illustrator 16.0.0, SVG Export Plug-In . SVG Version: 6.00 Build 0)  -->
<!DOCTYPE svg PUBLIC "-//W3C//DTD SVG 1.1//EN" "http://www.w3.org/Graphics/SVG/1.1/DTD/svg11.dtd">
<svg version="1.1" id="Calque_1" xmlns="http://www.w3.org/2000/svg" xmlns:xlink="http://www.w3.org/1999/xlink" x="0px" y="0px"
	 width="147.167px" height="50px" viewBox="0 0 147.167 50" enable-background="new 0 0 147.167 50" xml:space="preserve">
<path fill="none" stroke="#42B7B7" stroke-width="2" stroke-linecap="round" stroke-linejoin="round" stroke-miterlimit="10" d="
	M4.5,49.167c-1.229-11.343,1.923-19.798,3.03-27.98c0.874-6.464,1.193-13.47,2.984-19.736c4.039,10.006,3.682,21.662,5.888,32.024
	C17.23,37.371,17.828,44.428,19.509,49"/>
<path fill="none" stroke="#42B7B7" stroke-width="2" stroke-linecap="round" stroke-linejoin="round" stroke-miterlimit="10" d="
	M6.56,26.701c2.874-0.932,5.305-0.615,8.206-1.229"/>
<path fill="none" stroke="#42B7B7" stroke-width="2" stroke-linecap="round" stroke-linejoin="round" stroke-miterlimit="10" d="
	M38.031,49.076c-2.057-9.145-1-19.126-1-28.538c0-5.4-0.329-13.779-0.333-19.179C36.697-0.026,51.629,1.279,47.97,14.575
	c-0.892,3.242-2.825,6.413-6.064,7.514c-1.377,0.468-4.038,0.061-4.875-1.551"/>
<path fill="none" stroke="#42B7B7" stroke-width="2" stroke-linecap="round" stroke-linejoin="round" stroke-miterlimit="10" d="
	M92.632,49.076c-2.057-9.145-1-19.127-1-28.538c0-5.4-0.328-13.779-0.333-19.179c-0.001-1.386,14.931-0.081,11.272,13.216
	c-0.893,3.242-2.826,6.413-6.064,7.514c-1.377,0.468-4.038,0.061-4.875-1.551"/>
<path fill="none" stroke="#42B7B7" stroke-width="2" stroke-linecap="round" stroke-linejoin="round" stroke-miterlimit="10" d="
	M53.712,48.339C52.533,35.991,52.847,23.3,51.86,10.933c-0.125-1.557-1.33-7.829-0.235-8.981c0.833-0.878,3.536-0.642,4.441-0.313
	c2.585,0.94,6.048,2.853,6.548,6.294c0.537,3.695,0.755,8.005-1.875,10.963c-1.364,1.532-5.595,2.557-7.671,2.248
	c5.408,8.342,7.655,17.433,13.065,27.515"/>
<path fill="none" stroke="#42B7B7" stroke-width="2" stroke-linecap="round" stroke-linejoin="round" stroke-miterlimit="10" d="
	M72.752,2.375c-4.572,0.979-4.844,12.231-5.237,16.643c-0.383,4.293-0.63,8.813-0.193,13.121
	c0.337,3.316,1.461,18.561,10.797,15.649c3.891-1.213,5.669-8.098,6.291-12.645c1.21-8.852,2.088-19.784-1.613-27.848
	C80.8,2.944,78.333,0.763,72.752,2.375"/>
<path fill="none" stroke="#42B7B7" stroke-width="2" stroke-linecap="round" stroke-linejoin="round" stroke-miterlimit="10" d="
	M111,2.375c-4.572,0.979-4.844,12.231-5.237,16.643c-0.383,4.293-0.63,8.813-0.193,13.121c0.337,3.316,1.461,18.561,10.797,15.649
	c3.891-1.213,5.669-8.098,6.291-12.645c1.21-8.852,2.088-19.784-1.613-27.848C119.048,2.944,116.581,0.763,111,2.375"/>
<path fill="none" stroke="#42B7B7" stroke-width="2" stroke-linecap="round" stroke-linejoin="round" stroke-miterlimit="10" d="
	M141.939,3.686c-5.135-4.299-14.57-2.011-14.942,4.511c-0.224,3.907,1.251,8.087,3.735,10.74c2.846,3.04,6.474,4.477,9.62,7.398
	c4.854,4.509,5.202,13.769,0.343,18.538c-3.057,3-8.404,4.147-14.133,3.427"/>
</svg>
