<?xml version="1.0" encoding="utf-8"?>
<!-- Generator: Adobe Illustrator 16.0.0, SVG Export Plug-In . SVG Version: 6.00 Build 0)  -->
<!DOCTYPE svg PUBLIC "-//W3C//DTD SVG 1.1//EN" "http://www.w3.org/Graphics/SVG/1.1/DTD/svg11.dtd">
<svg version="1.1" id="Calque_1" xmlns="http://www.w3.org/2000/svg" xmlns:xlink="http://www.w3.org/1999/xlink" x="0px" y="0px"
	 width="156.49px" height="100px" viewBox="0 206 156.49 100" enable-background="new 0 206 156.49 100" xml:space="preserve">
<g>
	<path fill="#41B7B7" d="M19.862,269.439c-0.364-2.967-0.708-5.768-1.084-7.968c-1.111-6.495-1.759-13.455-2.384-20.187
		c-1.077-11.597-2.192-23.588-5.701-34.408c-0.176-0.542-0.692-0.896-1.264-0.876c-0.57,0.025-1.054,0.428-1.182,0.984
		c-1.772,7.718-2.503,16.1-3.209,24.207c-0.273,3.137-0.556,6.38-0.893,9.477c-0.399,3.674-0.959,7.223-1.556,10.948
		c-0.164,0.274-0.223,0.605-0.148,0.93c-1.606,10.021-3.229,20.416-2.021,34.281c0.061,0.698,0.678,1.219,1.375,1.154
		c0.698-0.061,1.216-0.677,1.155-1.375c-1.172-13.457,0.395-23.645,1.965-33.448c1.153-0.414,2.296-0.722,3.492-1.038
		c2.024-0.534,4.107-1.092,6.274-2.227c0.428,4.059,0.926,8.105,1.593,12.005c0.366,2.142,0.707,4.914,1.067,7.85
		c0.769,6.259,1.64,13.354,3.212,18.675c0.163,0.553,0.669,0.911,1.217,0.911c0.119,0,0.24-0.017,0.36-0.053
		c0.672-0.199,1.056-0.905,0.858-1.577C21.476,282.584,20.619,275.6,19.862,269.439z M7.759,249.666
		c-0.784,0.207-1.583,0.42-2.394,0.667c0.5-3.152,0.961-6.215,1.306-9.391c0.339-3.125,0.623-6.38,0.897-9.531
		c0.544-6.247,1.103-12.659,2.142-18.754c2.329,9.22,3.255,19.181,4.155,28.862c0.173,1.86,0.348,3.737,0.534,5.619
		C12.172,248.494,10.026,249.067,7.759,249.666z"/>
	<path fill="#41B7B7" d="M55.487,257.931c-2.026-0.694-3.903-0.396-5.354,0.774c-0.112-0.033-0.227-0.059-0.349-0.063
		c-0.756-0.018-1.394,0.571-1.418,1.331c-0.012,0.347-0.017,0.749-0.019,1.189c-0.034,0.173-0.033,0.348,0,0.517
		c0.021,5.819,0.71,18.047,1.275,28.074c0.4,7.095,0.813,14.424,0.753,15.672c-0.048,0.174-0.064,0.36-0.038,0.551
		c0.092,0.69,0.682,1.193,1.361,1.193c0.061,0,0.122-0.004,0.183-0.012c1.292-0.172,1.267-1.335,1.238-2.682
		c-0.018-0.79-0.062-1.937-0.137-3.505c-0.14-2.929-0.371-7.03-0.616-11.372c-0.229-4.066-0.479-8.494-0.696-12.704
		c9.057-0.096,11.174-4.156,11.617-6.635C64.187,265.219,59.756,259.393,55.487,257.931z M60.581,269.778
		c-0.5,2.798-3.704,4.327-9.049,4.368c-0.246-5.026-0.424-9.521-0.437-12.396c0.826-1.335,1.97-1.744,3.501-1.219
		C57.737,261.608,61.203,266.284,60.581,269.778z"/>
	<path fill="#41B7B7" d="M78.674,270.147c-1.108-0.94-2.236-1.9-3.29-2.883c1.73-0.325,3.141-1.208,4.064-2.594
		c1.493-2.24,1.43-5.362-0.154-7.769c-1.646-2.499-4.461-3.589-7.729-2.99c-0.679,0.125-1.16,0.731-1.125,1.421
		c0.323,6.449,0.132,13.22-0.11,20.167c-0.026,0.759,0.568,1.396,1.327,1.422c0.764,0.049,1.395-0.567,1.421-1.325
		c0.077-2.198,0.149-4.379,0.201-6.539c1.162,1.101,2.402,2.153,3.617,3.186c1.754,1.491,3.569,3.033,5.034,4.627
		c0.271,0.294,0.642,0.444,1.013,0.444c0.332,0,0.666-0.12,0.93-0.362c0.558-0.515,0.594-1.385,0.081-1.943
		C82.373,273.29,80.492,271.692,78.674,270.147z M73.351,264.64c0.023-2.753-0.002-5.469-0.107-8.139c0.01,0,0.02,0,0.03,0
		c2.111,0,3.219,1.147,3.724,1.913c0.97,1.475,1.037,3.421,0.162,4.732C76.427,264.245,75.091,264.761,73.351,264.64z"/>
	<path fill="#41B7B7" d="M95.4,257.837c-3.072,0-5.759,2.475-6.687,6.159c-0.975,3.867,0.158,8.91,4.886,11.454
		c1.373,0.74,2.689,1.114,3.912,1.114c2.457,0,4.456-1.514,5.486-4.153c1.399-3.584,0.866-9.335-2.471-12.407
		C98.849,258.566,97.124,257.837,95.4,257.837z M100.437,271.412c-0.427,1.096-1.283,2.402-2.924,2.402
		c-0.764,0-1.641-0.265-2.609-0.785c-3.66-1.97-4.186-5.735-3.523-8.362c0.512-2.03,1.953-4.081,4.021-4.081
		c1.047,0,2.17,0.507,3.3,1.475C101.036,264.21,101.489,268.715,100.437,271.412z"/>
	<path fill="#41B7B7" d="M116.313,260.617c-2.434-1.924-5.047-2.112-7.17-0.514c-1.894,1.426-1.351,6.003,0.583,15.724
		c0.298,1.497,0.555,2.791,0.608,3.311c0.001,0.019,0.002,0.036,0.005,0.055c0.131,1.409,0.257,2.681,0.374,3.858
		c0.638,6.445,0.99,9.995,0.295,17.699c-0.068,0.756,0.49,1.426,1.246,1.494c0.042,0.003,0.083,0.006,0.125,0.006
		c0.703,0,1.303-0.539,1.368-1.252c0.718-7.963,0.357-11.604-0.298-18.218c-0.069-0.697-0.141-1.428-0.216-2.2
		c5.284,0.28,7.313-2.396,8.073-4.135C123.442,271.554,120.323,263.788,116.313,260.617z M118.785,275.341
		c-0.84,1.919-2.811,2.745-5.877,2.461c-0.117-0.657-0.285-1.502-0.486-2.511c-0.628-3.16-2.285-11.491-1.537-13.056
		c0.48-0.35,1.695-1.063,3.723,0.541C117.775,265.28,120.378,271.699,118.785,275.341z"/>
	<path fill="#41B7B7" d="M136.337,259.077c-0.043-0.032-0.088-0.061-0.135-0.087c-1.324-0.744-2.663-1.122-3.979-1.122
		c-4.437,0-7.25,4.111-7.643,7.979c-0.369,3.626,1.301,8.293,7.222,9.511c0.695,0.144,1.371,0.215,2.007,0.215c0.001,0,0,0,0.001,0
		c3.078,0,5.389-1.677,6.341-4.602C141.473,266.905,139.763,261.571,136.337,259.077z M137.537,270.12
		c-0.584,1.794-1.839,2.704-3.728,2.704c-0.451,0-0.94-0.055-1.455-0.16c-5.185-1.065-5.167-5.273-5.039-6.538
		c0.276-2.708,2.188-5.51,4.908-5.51c0.816,0,1.678,0.245,2.56,0.73C137.484,263.367,138.39,267.497,137.537,270.12z"/>
	<path fill="#41B7B7" d="M156.33,267.618c-0.688-3.312-3.636-3.707-5.788-3.996c-2.637-0.354-3.658-0.665-3.939-2.601
		c-0.065-0.631,0.671-3.008,2.005-3.572c1.166-0.501,2.901,0.525,4.882,2.878c0.488,0.582,1.356,0.656,1.937,0.169
		c0.582-0.489,0.656-1.356,0.167-1.938c-3.725-4.426-6.542-4.377-8.25-3.555c-2.619,1.258-3.725,4.933-3.45,6.488
		c0.606,4.095,4.021,4.554,6.282,4.856c2.301,0.309,3.195,0.547,3.461,1.829c0.268,1.288,0.028,2.344-0.734,3.228
		c-1.595,1.852-5.219,2.664-7.977,2.505c-0.745-0.046-1.408,0.537-1.451,1.294c-0.043,0.759,0.537,1.408,1.294,1.451
		c0.277,0.016,0.562,0.023,0.851,0.023c3.294,0,7.259-1.035,9.365-3.478C156.305,271.668,156.769,269.738,156.33,267.618z"/>
</g>
</svg>
