<?xml version="1.0" encoding="utf-8"?>
<!-- Generator: Adobe Illustrator 16.0.0, SVG Export Plug-In . SVG Version: 6.00 Build 0)  -->
<!DOCTYPE svg PUBLIC "-//W3C//DTD SVG 1.1//EN" "http://www.w3.org/Graphics/SVG/1.1/DTD/svg11.dtd">
<svg version="1.1" id="Calque_1" xmlns="http://www.w3.org/2000/svg" xmlns:xlink="http://www.w3.org/1999/xlink" x="0px" y="0px"
	 width="355.334px" height="50px" viewBox="0 0 355.334 50" enable-background="new 0 0 355.334 50" xml:space="preserve">
<path fill="none" stroke="#6FB347" stroke-width="2" stroke-linecap="round" stroke-linejoin="round" stroke-miterlimit="10" d="
	M19.199,2.272C5.282-1.575,0.395,25.602,3.815,37.603c2.523,8.854,10.895,14.297,17.362,8.946"/>
<path fill="none" stroke="#6FB347" stroke-width="2" stroke-linecap="round" stroke-linejoin="round" stroke-miterlimit="10" d="
	M26.177,48.681c-1.179-12.348-1.27-24.889-2.256-37.256C23.795,9.868,23.646,4,24.09,2.293c0.305-1.171,3.536-0.642,4.441-0.313
	c2.585,0.94,6.048,2.853,6.548,6.294c0.537,3.694,0.755,8.005-1.875,10.963c-1.364,1.532-5.595,2.558-7.671,2.247
	C30.941,29.827,33.188,38.918,38.599,49"/>
<path fill="none" stroke="#6FB347" stroke-width="2" stroke-linecap="round" stroke-linejoin="round" stroke-miterlimit="10" d="
	M79.307,48.681c-1.179-12.348-1.27-24.889-2.256-37.256C76.926,9.868,76.775,4,77.22,2.293c0.305-1.171,3.536-0.642,4.441-0.313
	c2.585,0.94,6.048,2.853,6.548,6.294c0.537,3.694,0.755,8.005-1.875,10.963c-1.364,1.532-5.595,2.558-7.671,2.247
	C84.071,29.827,86.318,38.918,91.729,49"/>
<g>
	<path fill="none" stroke="#6FB347" stroke-width="2" stroke-linecap="round" stroke-linejoin="round" stroke-miterlimit="10" d="
		M41.098,2.452c-0.225,11.698-0.611,23.556,0.203,35.264c0.229,3.26-0.139,7.35,0.797,10.404"/>
	<g>
		<path fill="none" stroke="#6FB347" stroke-width="2" stroke-linecap="round" stroke-linejoin="round" stroke-miterlimit="10" d="
			M41.098,2.68c0.723-0.758,10.584-0.362,13.271-0.272"/>
		<path fill="none" stroke="#6FB347" stroke-width="2" stroke-linecap="round" stroke-linejoin="round" stroke-miterlimit="10" d="
			M40.932,25.68c1.943,0,5.492,0,7.438,0"/>
		<path fill="none" stroke="#6FB347" stroke-width="2" stroke-linecap="round" stroke-linejoin="round" stroke-miterlimit="10" d="
			M42.098,48.347c4.209,0,7.459-0.234,10.834-0.584"/>
	</g>
</g>
<g>
	<path fill="none" stroke="#6FB347" stroke-width="2" stroke-linecap="round" stroke-linejoin="round" stroke-miterlimit="10" d="
		M58.848,2.452c-0.225,11.698-0.611,23.556,0.203,35.263c0.229,3.26-0.139,7.35,0.797,10.404"/>
	<g>
		<path fill="none" stroke="#6FB347" stroke-width="2" stroke-linecap="round" stroke-linejoin="round" stroke-miterlimit="10" d="
			M58.848,2.68c0.723-0.758,10.584-0.362,13.271-0.272"/>
		<path fill="none" stroke="#6FB347" stroke-width="2" stroke-linecap="round" stroke-linejoin="round" stroke-miterlimit="10" d="
			M58.682,25.68c1.943,0,5.492,0,7.438,0"/>
		<path fill="none" stroke="#6FB347" stroke-width="2" stroke-linecap="round" stroke-linejoin="round" stroke-miterlimit="10" d="
			M59.848,48.346c4.209,0,7.459-0.234,10.834-0.584"/>
	</g>
</g>
<g>
	<path fill="none" stroke="#6FB347" stroke-width="2" stroke-linecap="round" stroke-linejoin="round" stroke-miterlimit="10" d="
		M280.057,2.452c-0.225,11.698-0.611,23.556,0.203,35.263c0.229,3.26-0.139,7.35,0.797,10.404"/>
	<g>
		<path fill="none" stroke="#6FB347" stroke-width="2" stroke-linecap="round" stroke-linejoin="round" stroke-miterlimit="10" d="
			M280.057,2.68c0.723-0.758,10.584-0.362,13.271-0.272"/>
		<path fill="none" stroke="#6FB347" stroke-width="2" stroke-linecap="round" stroke-linejoin="round" stroke-miterlimit="10" d="
			M279.891,25.68c1.943,0,5.492,0,7.438,0"/>
		<path fill="none" stroke="#6FB347" stroke-width="2" stroke-linecap="round" stroke-linejoin="round" stroke-miterlimit="10" d="
			M281.057,48.346c4.209,0,7.459-0.234,10.834-0.584"/>
	</g>
</g>
<path fill="none" stroke="#6FB347" stroke-width="2" stroke-linecap="round" stroke-linejoin="round" stroke-miterlimit="10" d="
	M118.678,1.175c-0.952,5.733-0.867,10.036-0.87,15.032c-0.005,7.811,0.202,13.731,1.27,20.605c0.626,4.031,1.435,9.132,4.811,11.065
	c4.419,2.53,8.468,0.715,10.96-3.575c4.103-7.063,3.763-18.348,3.991-26.767c0.084-3.115-1.025-16.07-1.092-16.361"/>
<path fill="none" stroke="#6FB347" stroke-width="2" stroke-linecap="round" stroke-linejoin="round" stroke-miterlimit="10" d="
	M232.469,2.675c-0.878,5.417-0.8,9.483-0.803,14.204c-0.005,7.38,0.187,12.974,1.171,19.469c0.578,3.81,1.325,8.628,4.44,10.455
	c4.078,2.392,7.814,0.676,10.114-3.378c3.786-6.673,3.473-17.337,3.684-25.291c0.077-2.943-0.946-15.185-1.007-15.459"/>
<path fill="none" stroke="#6FB347" stroke-width="2" stroke-linecap="round" stroke-linejoin="round" stroke-miterlimit="10" d="
	M145.1,48.482c-0.189-4.021-0.264-28.992-0.083-35.265c0.108-3.792,0.118-7.699,0.083-11.524
	c4.435,10.695,17.476,43.719,19.234,47.185C163.798,35.444,163.317,6.331,163,3.005"/>
<path fill="none" stroke="#6FB347" stroke-width="2" stroke-linecap="round" stroke-linejoin="round" stroke-miterlimit="10" d="
	M298.9,48.482c-0.189-4.021-0.264-28.992-0.083-35.265c0.108-3.792,0.118-7.699,0.083-11.524
	c4.435,10.695,17.476,43.719,19.234,47.185c-0.536-13.434-1.017-42.547-1.334-45.873"/>
<path fill="none" stroke="#6FB347" stroke-width="2" stroke-linecap="round" stroke-linejoin="round" stroke-miterlimit="10" d="
	M202.718,3.971c-5.135-4.299-14.57-2.011-14.942,4.511c-0.224,3.907,1.251,8.087,3.735,10.74c2.846,3.04,6.474,4.477,9.62,7.398
	c4.854,4.509,5.202,13.769,0.343,18.538c-3.057,3-8.404,4.148-14.133,3.428"/>
<path fill="none" stroke="#6FB347" stroke-width="2" stroke-linecap="round" stroke-linejoin="round" stroke-miterlimit="10" d="
	M213.853,2.944c-4.102,2.527-4.844,12.231-5.237,16.643c-0.383,4.293-0.63,8.812-0.193,13.12c0.337,3.316,1.461,18.561,10.797,15.65
	c3.891-1.213,5.669-8.098,6.291-12.645c1.21-8.852,2.088-19.784-1.613-27.848C221.9,3.514,219.376-0.029,213.853,2.944"/>
<path fill="none" stroke="#6FB347" stroke-width="2" stroke-linecap="round" stroke-linejoin="round" stroke-miterlimit="10" d="
	M254.376,3.045c1.474,9.191,7.23,39.75,10.25,44.48c4.425-9.925,9.251-40.646,10.25-44.23"/>
<g>
	<path fill="none" stroke="#6FB347" stroke-width="2" stroke-linecap="round" stroke-linejoin="round" stroke-miterlimit="10" d="
		M330.1,2.664c-0.059,4.354-0.232,25.03,0.295,31.422c0.37,4.498,0.086,9.023,0.588,13.459"/>
	<path fill="none" stroke="#6FB347" stroke-width="2" stroke-linecap="round" stroke-linejoin="round" stroke-miterlimit="10" d="
		M324.691,3.258c3.002-0.43,8.61-1.363,11.625-1.189"/>
	<path fill="none" stroke="#6FB347" stroke-width="2" stroke-linecap="round" stroke-linejoin="round" stroke-miterlimit="10" d="
		M324.923,48.508c2.312,0.1,9.112-0.316,11.161-0.08"/>
</g>
<path fill="none" stroke="#6FB347" stroke-width="2" stroke-linecap="round" stroke-linejoin="round" stroke-miterlimit="10" d="
	M342.912,48.624c-1.179-12.348-0.865-25.039-1.852-37.406c-0.125-1.557-1.33-7.829-0.235-8.981c0.833-0.878,3.536-0.642,4.441-0.313
	c2.585,0.94,6.048,2.853,6.548,6.294c0.537,3.695,0.755,8.005-1.875,10.963c-1.364,1.532-5.595,2.558-7.671,2.247
	c5.408,8.343,7.655,17.434,13.065,27.516"/>
</svg>
