<?xml version="1.0" encoding="utf-8"?>
<!-- Generator: Adobe Illustrator 16.0.0, SVG Export Plug-In . SVG Version: 6.00 Build 0)  -->
<!DOCTYPE svg PUBLIC "-//W3C//DTD SVG 1.1//EN" "http://www.w3.org/Graphics/SVG/1.1/DTD/svg11.dtd">
<svg version="1.1" id="Calque_1" xmlns="http://www.w3.org/2000/svg" xmlns:xlink="http://www.w3.org/1999/xlink" x="0px" y="0px"
	 width="685.422px" height="512px" viewBox="0 0 685.422 512" enable-background="new 0 0 685.422 512" xml:space="preserve">
<g>
	<path fill="#6FB347" d="M238.737,206.85c3.084-1.191,5.432-3.332,6.863-5.481c2.258-3.39,2.623-7.175,0.976-10.124
		c-1.08-1.934-4.037-5.137-11.688-4.866c-2.089,0.074-3.909,0.996-5.263,2.665c-5.059,6.236-3.083,22.362-0.482,37.313l0.202,1.164
		c0.208,1.218,1.266,2.078,2.461,2.078c0.14,0,0.282-0.012,0.425-0.037c1.361-0.233,2.275-1.525,2.042-2.886l-0.204-1.176
		c-1.184-6.809-1.959-12.627-2.326-17.441c1.068,0.758,2.208,1.55,3.392,2.374c7.218,5.02,16.201,11.266,20.236,17.464
		c0.754,1.157,2.303,1.485,3.459,0.731c1.157-0.753,1.484-2.302,0.731-3.459C255.14,218.382,246.175,212.026,238.737,206.85z
		 M232.353,202.737c-0.096-0.011-0.19-0.016-0.285-0.016c-0.194,0-0.385,0.022-0.569,0.066c-0.054-5.332,0.615-8.875,2.009-10.593
		c0.446-0.55,0.913-0.795,1.558-0.818c3.653-0.129,6.253,0.711,7.146,2.308c0.703,1.259,0.407,3.142-0.772,4.914
		C239.96,200.817,236.691,203.234,232.353,202.737z"/>
	<path fill="#6FB347" d="M301.453,223.789c-4.989,3.237-15.376-1.011-21.371-8.746c-1.01-1.304-2.457-3.478-3.224-6.043
		c9.032,4.614,13.695-0.173,14.97-1.855c3.502-4.619,3.177-12.294-0.668-15.794c-1.734-1.578-6.622-4.464-14.53,2.797
		c-6.871,6.31-7.063,15.49-0.5,23.958c5.125,6.613,13.808,11.766,21.204,11.765c2.487,0,4.83-0.583,6.842-1.889
		c1.158-0.751,1.487-2.3,0.735-3.458S302.61,223.036,301.453,223.789z M280.012,197.831c3.379-3.103,6.289-4.143,7.783-2.782
		c1.791,1.63,2.136,6.323,0.05,9.076c-2.669,3.521-7.649,1.181-10.379-0.527c-0.269-0.168-0.557-0.279-0.851-0.335
		C277.066,201.435,278.103,199.583,280.012,197.831z"/>
	<path fill="#6FB347" d="M273.414,178.321c2.25-2.375,4.938-4.875,7.538-7.292c2.601-2.419,5.29-4.92,7.649-7.388
		c0.954-0.998,0.918-2.581-0.08-3.535c-0.999-0.955-2.581-0.919-3.535,0.08c-2.258,2.362-4.892,4.812-7.44,7.181
		c-2.656,2.47-5.403,5.024-7.762,7.514c-0.95,1.002-0.907,2.584,0.095,3.534c0.483,0.458,1.102,0.686,1.719,0.686
		C272.261,179.101,272.922,178.839,273.414,178.321z"/>
	<path fill="#6FB347" d="M324.901,225.676c2.776,1.613,5.685,2.415,8.572,2.415c3.594,0,7.155-1.243,10.377-3.706
		c1.097-0.838,1.307-2.407,0.468-3.504c-0.837-1.097-2.407-1.307-3.504-0.468c-5.363,4.099-10.247,2.773-13.4,0.941
		c-3.881-2.256-6.964-6.393-8.229-10.561c5.702,3.03,11.163,1.716,14.774-0.962c4.622-3.427,6.676-8.993,4.778-12.947
		c-1.13-2.354-4.495-5.917-14.338-3.332c-6.136,1.611-9.936,5.602-10.7,11.236C312.668,212.385,317.484,221.365,324.901,225.676z
		 M325.669,198.388c4.446-1.168,7.808-0.911,8.561,0.659c0.73,1.521-0.425,4.674-3.249,6.768c-1.746,1.295-6.377,3.709-12.144-1.32
		C319.594,201.433,321.888,199.381,325.669,198.388z"/>
	<path fill="#6FB347" d="M362.227,210.52c0.003,0.001,0.005,0.003,0.007,0.005c6.97,5.43,15.643,12.187,19.338,16.365
		c0.915,1.034,2.494,1.131,3.529,0.216c1.034-0.915,1.131-2.495,0.217-3.529c-3.896-4.404-12.406-11.071-19.434-16.547
		c5.438-1.712,10.42-5.818,11.55-10.242c0.528-2.069,0.908-7.243-6.96-10.585c-3.547-1.507-6.048-0.55-7.524,0.518
		c-3.367,2.435-5.218,8.091-5.645,17.697c-0.208,0.537-0.22,1.113-0.059,1.638c-0.143,5.311,0.111,11.739,0.748,19.387
		c0.047,0.562,0.086,1.037,0.114,1.412c0.1,1.313,1.195,2.311,2.49,2.311c0.063,0,0.128-0.002,0.192-0.007
		c1.377-0.104,2.408-1.305,2.304-2.682c-0.029-0.384-0.07-0.872-0.118-1.448C362.5,219.301,362.272,214.518,362.227,210.52z
		 M365.879,190.772c0.172-0.124,0.482-0.349,1.074-0.349c0.388,0,0.896,0.097,1.565,0.381c3.162,1.344,4.531,2.94,4.07,4.747
		c-0.813,3.184-5.749,6.46-10.177,7.176C362.972,194.475,364.625,191.679,365.879,190.772z"/>
	<path fill="#6FB347" d="M491.312,225.453c0.973-0.979,0.967-2.563-0.013-3.535c-0.981-0.974-2.563-0.967-3.536,0.013
		c-2.401,2.42-3.609,1.826-4.066,1.602c-2.029-0.998-3.787-4.244-5.18-8.322c0.984-8.745-1.412-19.185-3.608-23.786
		c-0.477-0.999-1.555-1.567-2.646-1.392c-1.094,0.172-1.942,1.043-2.089,2.14c-0.568,4.281,0.396,14.855,3.232,23.533
		c-0.218,1.417-0.547,2.732-1.007,3.888c-0.91,2.29-2.204,3.731-3.956,4.407c-3.653,1.412-5.509,0.432-6.587-0.427
		c-6.211-4.951-6.285-24.735-5.269-31.772c0.197-1.367-0.751-2.634-2.117-2.832c-1.366-0.199-2.634,0.75-2.832,2.117
		c-0.039,0.275-3.155,28.221,7.102,36.396c1.424,1.135,3.531,2.218,6.392,2.218c1.495,0,3.196-0.296,5.112-1.035
		c2.688-1.038,4.773-3.021,6.214-5.907c1.422,2.43,3.094,4.308,5.033,5.261C483.72,229.116,487.235,229.56,491.312,225.453z"/>
	<path fill="#6FB347" d="M530.928,227.402c-1.631-2.185-2.586-7.141-3.511-11.933c-2.072-10.752-4.917-25.481-18.873-23.317
		c-0.342,0.053-0.669,0.176-0.96,0.361c-4.08,2.596-6.053,6.535-6.855,11.105c-0.189-3.883-0.035-7.288,0.516-9.597
		c0.32-1.343-0.509-2.691-1.852-3.012c-1.342-0.321-2.691,0.508-3.012,1.852c-2.324,9.746,1.017,31.009,6.383,40.629
		c0.45,0.807,1.295,1.283,2.184,1.283c0.224,0,0.451-0.031,0.676-0.093c1.112-0.313,1.866-1.347,1.822-2.503
		c-0.115-3.022-0.554-6.338-1.019-9.85c-1.295-9.788-2.759-20.854,3.413-25.305c8.112-0.904,10.302,7.127,12.668,19.394
		c1.078,5.591,2.097,10.873,4.412,13.977c0.826,1.105,2.39,1.334,3.499,0.509C531.526,230.075,531.753,228.509,530.928,227.402z"/>
	<path fill="#6FB347" d="M197.385,294.968c-2.317-1.687-4.903-2.622-7.184-3.447c-2.49-0.901-4.64-1.679-5.238-3
		c-0.482-1.065-0.217-2.953,0.766-5.459c1.307-3.33,5.535-6.158,9.425-6.304c2.389-0.086,4.052,0.811,4.948,2.672
		c0.599,1.244,2.091,1.766,3.337,1.169c1.244-0.599,1.768-2.093,1.169-3.337c-1.76-3.658-5.255-5.652-9.64-5.5
		c-5.888,0.22-11.86,4.292-13.893,9.474c-1.551,3.954-1.763,6.924-0.667,9.346c1.468,3.244,4.835,4.463,8.093,5.641
		c2.064,0.747,4.199,1.52,5.942,2.788c6.425,4.679,8.449,10.013,5.554,14.634c-3.267,5.213-12.155,7.92-20.184,3.636
		c-1.218-0.646-2.732-0.19-3.382,1.029c-0.65,1.218-0.189,2.732,1.029,3.383c3.587,1.913,7.247,2.746,10.7,2.746
		c6.974,0,13.103-3.396,16.075-8.14C207.633,310.873,207.619,302.42,197.385,294.968z"/>
	<path fill="#6FB347" d="M294.899,277.005c-1.328,0.379-2.097,1.763-1.718,3.091c2.202,7.716,3.879,33.321-5.161,37.547
		c-3.427,1.602-4.926,0.653-5.418,0.341c-5.517-3.501-5.563-21.188-5.586-30.688c-0.008-3.174-0.015-5.915-0.179-7.749
		c-0.123-1.376-1.336-2.395-2.712-2.269c-1.375,0.123-2.391,1.337-2.268,2.712c0.145,1.619,0.151,4.261,0.159,7.318
		c0.04,15.771,0.675,30.309,7.908,34.897c1.419,0.9,2.981,1.351,4.676,1.351c1.715,0,3.566-0.461,5.539-1.384
		c13.204-6.173,9.89-36.306,7.851-43.449C297.609,277.396,296.222,276.626,294.899,277.005z"/>
	<path fill="#6FB347" d="M350.145,275.588c-1.362-0.251-2.661,0.651-2.908,2.01c-1.694,9.277-5.092,17.88-9.026,27.841
		c-1.228,3.108-2.485,6.29-3.765,9.673c-4.95-8.511-7.423-17.875-10.021-27.709c-0.891-3.373-1.813-6.861-2.835-10.271
		c-0.396-1.322-1.789-2.076-3.113-1.677c-1.322,0.396-2.073,1.79-1.676,3.112c0.999,3.331,1.909,6.778,2.79,10.112
		c3.004,11.372,6.11,23.132,13.421,33.438c0.473,0.666,1.235,1.054,2.039,1.054c0.112,0,0.224-0.008,0.336-0.022
		c0.922-0.125,1.698-0.752,2.015-1.626c1.862-5.142,3.691-9.771,5.459-14.248c4.032-10.206,7.513-19.02,9.294-28.779
		C352.403,277.138,351.503,275.836,350.145,275.588z"/>
	<path fill="#6FB347" d="M391.34,311.485c-1.135-0.786-2.691-0.506-3.479,0.628c-2.13,3.069-4.56,4.46-7.205,4.141
		c-4.063-0.494-8.471-4.955-10.722-10.849c-2.46-6.442-1.75-12.772,1.9-16.933c1.939-2.211,4.855-4.438,7.739-2.492
		c2.254,1.519,3.476,4.977,2.468,6.982c-1.051,2.087-4.765,2.249-9.939,0.425c-1.309-0.461-2.73,0.226-3.189,1.527
		c-0.458,1.303,0.226,2.73,1.527,3.189c11.206,3.945,14.97-0.711,16.068-2.896c2.154-4.286,0.259-10.411-4.141-13.375
		c-1.674-1.13-7.654-4.224-14.291,3.341c-4.896,5.579-5.947,13.809-2.813,22.014c2.93,7.672,8.873,13.31,14.789,14.028
		c0.449,0.055,0.896,0.082,1.338,0.082c4.001,0,7.717-2.211,10.578-6.334C392.755,313.83,392.474,312.272,391.34,311.485z"/>
	<path fill="#6FB347" d="M423.073,279.128c-3.738-1.021-7.583,0.557-11.462,4.689c-0.006-0.01-0.011-0.02-0.016-0.029
		c-0.025-0.046-0.05-0.091-0.073-0.137c-0.173-1.083-0.337-2.196-0.488-3.349c-0.175-1.33-1.373-2.291-2.703-2.165
		c-1.336,0.121-2.339,1.274-2.272,2.614c0.114,2.292,0.321,3.455,0.627,4.307c0.713,4.325,1.564,8.13,2.394,11.838
		c1.513,6.762,2.941,13.147,3.277,21.725c0.055,1.381,1.238,2.447,2.596,2.4c1.38-0.054,2.454-1.216,2.4-2.596
		c-0.354-9.03-1.83-15.632-3.394-22.621c-0.401-1.794-0.809-3.611-1.2-5.497c2.446-3.396,5.952-7.182,9.002-6.355
		c7.081,1.927,11.932,24.262,12.955,35.79c0.115,1.301,1.206,2.279,2.487,2.279c0.074,0,0.148-0.003,0.224-0.01
		c1.376-0.122,2.392-1.336,2.27-2.711C439.664,318.936,436.301,282.728,423.073,279.128z"/>
	<path fill="#6FB347" d="M463.414,297.426c0.128-3.714,0.238-6.921,0.066-9.225c-0.103-1.377-1.301-2.409-2.679-2.308
		c-1.377,0.103-2.41,1.302-2.308,2.679c0.151,2.033,0.046,5.114-0.077,8.682c-0.252,7.322-0.565,16.437,1.102,23.407
		c0.274,1.147,1.299,1.92,2.43,1.92c0.192,0,0.388-0.022,0.583-0.069c1.343-0.321,2.172-1.67,1.851-3.013
		C462.872,313.186,463.172,304.447,463.414,297.426z"/>
	<path fill="#6FB347" d="M495.758,295.896c5.819-2.823,9.363-9.446,9.534-15.691c0.217-7.897-4.54-13.271-12.118-13.69
		c-2.553-0.145-4.81,0.779-6.521,2.662c-6.47,7.117-4.495,26.977-1.398,47.376c0.287,1.894,0.514,3.389,0.627,4.339
		c0.15,1.271,1.23,2.205,2.479,2.205c0.098,0,0.197-0.006,0.298-0.018c1.371-0.162,2.351-1.406,2.188-2.777
		c-0.122-1.03-0.354-2.562-0.648-4.499c-0.656-4.323-1.778-11.714-2.395-19.249c0.152,0.155,0.326,0.293,0.521,0.406
		c9.227,5.412,21.804,17.945,26.759,24.549c0.83,1.106,2.398,1.327,3.5,0.5c1.104-0.829,1.328-2.396,0.5-3.5
		C514.779,312.772,504.852,302.528,495.758,295.896z M487.573,293.323c-0.539-8.968-0.162-17.548,2.78-20.784
		c0.648-0.714,1.367-1.04,2.305-1.04c0.078,0,0.158,0.002,0.24,0.007c6.878,0.381,7.464,6.114,7.396,8.562
		c-0.161,5.882-4.301,12.232-10.707,12.235C488.774,292.303,488.034,292.696,487.573,293.323z"/>
	<path fill="#6FB347" d="M211.688,220.629c-7.822,4.286-17.167,4.91-26.312,1.761c-9.194-3.167-16.697-9.741-20.071-17.587
		c-5.465-12.709-3.196-36.506,8.893-51.674c5.741-7.204,16.051-15.153,32.556-12.134c1.359,0.248,2.661-0.65,2.909-2.009
		c0.249-1.358-0.65-2.661-2.009-2.909c-18.942-3.47-30.774,5.664-37.366,13.935c-13.636,17.109-15.587,42.788-9.576,56.767
		c3.921,9.118,12.533,16.722,23.037,20.339c4.377,1.507,8.803,2.256,13.134,2.256c6.053,0,11.92-1.463,17.208-4.36
		c1.211-0.664,1.655-2.183,0.991-3.394C214.418,220.41,212.899,219.967,211.688,220.629z"/>
	<path fill="#6FB347" d="M467.185,268.881c-1.022-0.377-1.938-0.33-2.729,0.135c-0.247,0.146-0.526,0.362-0.771,0.682
		c-0.318,0.31-0.558,0.705-0.676,1.155c-0.202,0.473-0.666,1.567-0.231,2.923c0.223,0.693,0.736,1.255,1.407,1.539
		c0.312,0.132,0.643,0.197,0.974,0.197c0.381,0,0.761-0.087,1.109-0.26c0.188-0.093,0.33-0.152,0.439-0.197
		c1.554-0.65,1.941-1.657,2.045-2.968c0.013-0.153,0.027-0.347,0.054-0.593C468.929,270.354,468.261,269.277,467.185,268.881z"/>
	<path fill="#6FB347" d="M248.889,279.11c-1.769-2.162-4.616-5.077-8.904-5.431c-0.255-0.021-0.5-0.053-0.747-0.083
		c-0.563-0.069-1.2-0.148-1.977-0.148c-1.544,0-3.231,0.33-5.293,1.036c-5.224,0.781-8.899,7.677-11.231,21.057
		c-0.043,0.25-0.076,0.438-0.099,0.554c-1.684,8.602,1.403,18.089,7.682,23.608c3.021,2.655,6.117,4.001,9.203,4.001
		c3.169,0,6.245-1.46,8.896-4.223c5.754-5.998,8.552-16.654,8.263-23.637C254.417,289.479,252.252,283.225,248.889,279.11z
		 M242.81,316.021c-3.452,3.595-7.066,3.55-11.189-0.073c-4.91-4.316-7.408-12.085-6.075-18.892c0.027-0.138,0.066-0.36,0.117-0.656
		c2.804-16.092,6.694-16.937,7.128-16.98c0.199-0.02,0.394-0.063,0.583-0.13c2.14-0.754,3.244-0.841,3.888-0.841
		c0.469,0,0.883,0.052,1.363,0.11c0.313,0.039,0.625,0.077,0.95,0.104c1.846,0.152,3.525,1.268,5.444,3.613
		c2.702,3.305,4.446,8.455,4.667,13.776C249.93,301.954,247.371,311.267,242.81,316.021z"/>
</g>
</svg>
