<?xml version="1.0" encoding="utf-8"?>
<!-- Generator: Adobe Illustrator 16.0.0, SVG Export Plug-In . SVG Version: 6.00 Build 0)  -->
<!DOCTYPE svg PUBLIC "-//W3C//DTD SVG 1.1//EN" "http://www.w3.org/Graphics/SVG/1.1/DTD/svg11.dtd">
<svg version="1.1" id="Calque_1" xmlns="http://www.w3.org/2000/svg" xmlns:xlink="http://www.w3.org/1999/xlink" x="0px" y="0px"
	 width="771.389px" height="100px" viewBox="0 206 771.389 100" enable-background="new 0 206 771.389 100" xml:space="preserve">
<g>
	<path fill="#6FB347" d="M81.251,277.528c3.084-1.19,5.432-3.332,6.863-5.48c2.258-3.391,2.623-7.175,0.976-10.124
		c-1.08-1.934-4.037-5.137-11.688-4.866c-2.089,0.074-3.909,0.996-5.263,2.665c-5.059,6.236-3.083,22.362-0.482,37.313l0.202,1.164
		c0.208,1.218,1.266,2.078,2.461,2.078c0.14,0,0.282-0.013,0.425-0.037c1.361-0.233,2.275-1.525,2.042-2.887l-0.204-1.176
		c-1.184-6.809-1.959-12.627-2.326-17.441c1.068,0.758,2.208,1.551,3.392,2.375c7.218,5.02,16.201,11.266,20.236,17.463
		c0.754,1.158,2.303,1.485,3.459,0.731c1.157-0.753,1.484-2.302,0.731-3.459C97.654,289.061,88.689,282.704,81.251,277.528z
		 M74.867,273.415c-0.096-0.01-0.19-0.016-0.285-0.016c-0.194,0-0.385,0.022-0.569,0.066c-0.054-5.332,0.615-8.875,2.009-10.593
		c0.446-0.55,0.913-0.795,1.558-0.818c3.653-0.129,6.253,0.711,7.146,2.309c0.703,1.259,0.407,3.142-0.772,4.913
		C82.474,271.495,79.205,273.913,74.867,273.415z"/>
	<path fill="#6FB347" d="M143.967,294.468c-4.989,3.236-15.376-1.012-21.371-8.746c-1.01-1.304-2.457-3.479-3.224-6.043
		c9.032,4.614,13.695-0.173,14.97-1.855c3.502-4.619,3.177-12.293-0.668-15.793c-1.734-1.578-6.622-4.465-14.53,2.797
		c-6.871,6.31-7.063,15.49-0.5,23.957c5.125,6.613,13.808,11.767,21.204,11.766c2.487,0,4.83-0.583,6.842-1.889
		c1.158-0.752,1.487-2.301,0.735-3.459C146.673,294.045,145.125,293.715,143.967,294.468z M122.526,268.51
		c3.379-3.103,6.289-4.143,7.783-2.782c1.791,1.631,2.136,6.323,0.05,9.076c-2.669,3.521-7.649,1.182-10.379-0.527
		c-0.269-0.168-0.557-0.279-0.851-0.334C119.58,272.114,120.617,270.262,122.526,268.51z"/>
	<path fill="#6FB347" d="M115.928,249c2.25-2.375,4.938-4.875,7.538-7.292c2.601-2.419,5.29-4.92,7.649-7.388
		c0.954-0.998,0.918-2.581-0.08-3.535c-0.999-0.955-2.581-0.919-3.535,0.08c-2.258,2.362-4.892,4.812-7.44,7.181
		c-2.656,2.47-5.403,5.024-7.762,7.514c-0.95,1.002-0.907,2.584,0.095,3.534c0.483,0.458,1.102,0.686,1.719,0.686
		C114.775,249.78,115.436,249.518,115.928,249z"/>
	<path fill="#6FB347" d="M167.416,296.354c2.775,1.613,5.685,2.415,8.571,2.415c3.595,0,7.155-1.243,10.377-3.706
		c1.098-0.838,1.308-2.406,0.469-3.504c-0.837-1.097-2.407-1.307-3.504-0.468c-5.363,4.099-10.247,2.772-13.4,0.94
		c-3.881-2.256-6.964-6.393-8.229-10.561c5.702,3.03,11.163,1.716,14.774-0.962c4.622-3.427,6.676-8.993,4.778-12.947
		c-1.13-2.354-4.495-5.917-14.338-3.332c-6.137,1.611-9.937,5.603-10.7,11.236C155.182,283.063,159.999,292.044,167.416,296.354z
		 M168.183,269.067c4.446-1.169,7.808-0.911,8.562,0.658c0.729,1.521-0.426,4.674-3.249,6.768
		c-1.746,1.295-6.377,3.709-12.145-1.319C162.108,272.112,164.402,270.06,168.183,269.067z"/>
	<path fill="#6FB347" d="M204.741,281.198c0.003,0.002,0.006,0.004,0.008,0.006c6.97,5.43,15.643,12.187,19.338,16.365
		c0.915,1.033,2.494,1.131,3.528,0.215c1.034-0.914,1.132-2.494,0.218-3.528c-3.896-4.404-12.406-11.071-19.435-16.547
		c5.438-1.712,10.42-5.818,11.55-10.242c0.528-2.069,0.908-7.243-6.96-10.585c-3.547-1.507-6.048-0.55-7.523,0.519
		c-3.367,2.435-5.218,8.091-5.646,17.696c-0.208,0.537-0.22,1.113-0.059,1.639c-0.144,5.311,0.111,11.738,0.748,19.387
		c0.047,0.562,0.086,1.037,0.114,1.412c0.1,1.313,1.194,2.311,2.489,2.311c0.063,0,0.128-0.002,0.192-0.007
		c1.377-0.104,2.408-1.306,2.304-2.683c-0.028-0.384-0.069-0.871-0.118-1.447C205.014,289.979,204.787,285.196,204.741,281.198z
		 M208.393,261.451c0.172-0.124,0.482-0.35,1.074-0.35c0.388,0,0.896,0.098,1.564,0.382c3.162,1.344,4.531,2.939,4.07,4.746
		c-0.813,3.184-5.749,6.46-10.177,7.176C205.486,265.154,207.139,262.358,208.393,261.451z"/>
	<path fill="#6FB347" d="M333.826,296.132c0.974-0.979,0.968-2.563-0.013-3.535c-0.98-0.975-2.563-0.967-3.536,0.014
		c-2.4,2.42-3.608,1.825-4.065,1.602c-2.029-0.998-3.787-4.244-5.181-8.322c0.984-8.745-1.411-19.185-3.607-23.786
		c-0.478-0.999-1.555-1.566-2.646-1.392c-1.094,0.172-1.941,1.043-2.089,2.14c-0.567,4.281,0.396,14.854,3.232,23.533
		c-0.218,1.417-0.547,2.731-1.007,3.888c-0.91,2.29-2.204,3.731-3.956,4.407c-3.653,1.412-5.51,0.433-6.587-0.427
		c-6.211-4.951-6.285-24.735-5.27-31.772c0.197-1.366-0.751-2.634-2.117-2.832c-1.365-0.198-2.634,0.75-2.832,2.117
		c-0.039,0.275-3.154,28.222,7.103,36.396c1.424,1.136,3.53,2.219,6.392,2.219c1.495,0,3.196-0.297,5.112-1.035
		c2.688-1.038,4.772-3.021,6.214-5.907c1.422,2.431,3.094,4.308,5.033,5.261C326.234,299.795,329.75,300.239,333.826,296.132z"/>
	<path fill="#6FB347" d="M373.441,298.081c-1.631-2.186-2.586-7.142-3.511-11.934c-2.072-10.752-4.917-25.48-18.873-23.316
		c-0.342,0.053-0.669,0.176-0.96,0.361c-4.08,2.596-6.053,6.534-6.854,11.104c-0.189-3.884-0.035-7.288,0.516-9.597
		c0.32-1.344-0.509-2.691-1.852-3.013c-1.342-0.32-2.69,0.509-3.012,1.853c-2.324,9.746,1.018,31.009,6.382,40.629
		c0.45,0.807,1.295,1.283,2.185,1.283c0.224,0,0.451-0.031,0.676-0.094c1.112-0.313,1.866-1.347,1.822-2.503
		c-0.115-3.022-0.555-6.338-1.02-9.85c-1.295-9.788-2.759-20.854,3.413-25.305c8.112-0.904,10.302,7.126,12.668,19.394
		c1.078,5.591,2.097,10.873,4.412,13.977c0.826,1.105,2.39,1.334,3.499,0.51C374.04,300.754,374.267,299.188,373.441,298.081z"/>
	<path fill="#6FB347" d="M449.189,274.073c-2.316-1.688-4.902-2.623-7.184-3.447c-2.49-0.9-4.641-1.68-5.238-2.999
		c-0.482-1.065-0.217-2.953,0.766-5.459c1.308-3.33,5.535-6.158,9.426-6.305c2.389-0.086,4.052,0.811,4.947,2.672
		c0.6,1.244,2.092,1.766,3.338,1.17c1.244-0.6,1.768-2.094,1.168-3.338c-1.76-3.658-5.254-5.652-9.64-5.5
		c-5.888,0.221-11.86,4.293-13.893,9.475c-1.552,3.953-1.763,6.924-0.667,9.345c1.468,3.244,4.835,4.463,8.093,5.641
		c2.063,0.748,4.199,1.521,5.942,2.789c6.425,4.678,8.449,10.012,5.554,14.633c-3.267,5.213-12.155,7.92-20.185,3.637
		c-1.217-0.646-2.731-0.189-3.381,1.029c-0.65,1.217-0.189,2.732,1.028,3.383c3.587,1.912,7.247,2.746,10.7,2.746
		c6.974,0,13.104-3.396,16.074-8.141C459.438,289.978,459.424,281.524,449.189,274.073z"/>
	<path fill="#6FB347" d="M546.703,256.11c-1.328,0.379-2.097,1.763-1.717,3.091c2.201,7.717,3.879,33.321-5.162,37.546
		c-3.427,1.604-4.926,0.654-5.418,0.342c-5.517-3.502-5.563-21.188-5.586-30.688c-0.008-3.174-0.015-5.915-0.179-7.749
		c-0.123-1.376-1.336-2.395-2.712-2.27c-1.375,0.123-2.391,1.338-2.268,2.713c0.145,1.619,0.15,4.261,0.158,7.318
		c0.041,15.771,0.676,30.308,7.908,34.896c1.419,0.9,2.98,1.352,4.676,1.352c1.715,0,3.566-0.461,5.539-1.385
		c13.204-6.172,9.891-36.305,7.852-43.448C549.414,256.502,548.027,255.731,546.703,256.11z"/>
	<path fill="#6FB347" d="M601.949,254.693c-1.361-0.251-2.66,0.651-2.907,2.01c-1.694,9.277-5.093,17.88-9.026,27.841
		c-1.228,3.107-2.485,6.289-3.765,9.672c-4.95-8.51-7.423-17.875-10.021-27.708c-0.891-3.372-1.813-6.86-2.835-10.271
		c-0.396-1.321-1.789-2.075-3.113-1.677c-1.321,0.396-2.072,1.79-1.676,3.111c0.999,3.332,1.909,6.779,2.79,10.113
		c3.004,11.37,6.11,23.13,13.421,33.437c0.474,0.666,1.235,1.055,2.039,1.055c0.112,0,0.225-0.008,0.336-0.023
		c0.922-0.125,1.698-0.752,2.016-1.625c1.861-5.143,3.69-9.771,5.459-14.248c4.031-10.207,7.513-19.02,9.294-28.778
		C604.208,256.244,603.308,254.941,601.949,254.693z"/>
	<path fill="#6FB347" d="M643.145,290.589c-1.135-0.785-2.69-0.506-3.479,0.629c-2.13,3.068-4.561,4.459-7.205,4.141
		c-4.063-0.494-8.472-4.955-10.723-10.85c-2.46-6.441-1.75-12.771,1.9-16.931c1.939-2.212,4.855-4.438,7.739-2.492
		c2.254,1.519,3.476,4.976,2.468,6.981c-1.051,2.086-4.765,2.248-9.939,0.424c-1.309-0.461-2.729,0.227-3.188,1.527
		c-0.458,1.303,0.226,2.73,1.527,3.189c11.206,3.945,14.97-0.711,16.067-2.896c2.154-4.285,0.259-10.41-4.141-13.374
		c-1.674-1.13-7.654-4.225-14.291,3.341c-4.896,5.578-5.947,13.809-2.813,22.014c2.931,7.672,8.873,13.311,14.789,14.027
		c0.449,0.055,0.896,0.082,1.338,0.082c4.001,0,7.718-2.211,10.578-6.334C644.56,292.935,644.278,291.376,643.145,290.589z"/>
	<path fill="#6FB347" d="M674.878,258.233c-3.738-1.021-7.583,0.558-11.462,4.688c-0.007-0.01-0.012-0.02-0.017-0.028
		c-0.024-0.046-0.05-0.091-0.072-0.138c-0.174-1.082-0.338-2.195-0.488-3.349c-0.175-1.329-1.373-2.29-2.703-2.165
		c-1.336,0.121-2.339,1.274-2.272,2.614c0.114,2.292,0.321,3.455,0.627,4.308c0.714,4.323,1.564,8.128,2.395,11.837
		c1.513,6.762,2.941,13.146,3.277,21.725c0.055,1.381,1.237,2.447,2.596,2.4c1.38-0.055,2.454-1.217,2.399-2.596
		c-0.354-9.031-1.829-15.633-3.394-22.621c-0.401-1.795-0.809-3.611-1.2-5.498c2.446-3.395,5.952-7.181,9.002-6.354
		c7.081,1.927,11.933,24.262,12.955,35.789c0.115,1.301,1.206,2.279,2.487,2.279c0.074,0,0.147-0.004,0.224-0.01
		c1.376-0.123,2.393-1.336,2.271-2.711C691.469,298.04,688.105,261.834,674.878,258.233z"/>
	<path fill="#6FB347" d="M715.219,276.53c0.128-3.713,0.238-6.92,0.066-9.224c-0.104-1.377-1.302-2.409-2.68-2.309
		c-1.377,0.104-2.41,1.303-2.308,2.68c0.15,2.032,0.046,5.112-0.077,8.681c-0.252,7.322-0.565,16.438,1.102,23.408
		c0.274,1.146,1.3,1.92,2.431,1.92c0.191,0,0.388-0.023,0.583-0.07c1.343-0.32,2.172-1.67,1.851-3.012
		C714.677,292.29,714.977,283.552,715.219,276.53z"/>
	<path fill="#6FB347" d="M747.563,275.001c5.819-2.822,9.363-9.445,9.534-15.69c0.217-7.896-4.54-13.271-12.118-13.689
		c-2.553-0.146-4.81,0.778-6.521,2.661c-6.471,7.117-4.495,26.977-1.398,47.375c0.287,1.895,0.514,3.389,0.627,4.34
		c0.15,1.271,1.23,2.205,2.479,2.205c0.098,0,0.196-0.006,0.298-0.018c1.371-0.162,2.351-1.406,2.188-2.777
		c-0.122-1.031-0.354-2.563-0.647-4.5c-0.656-4.322-1.778-11.713-2.396-19.248c0.152,0.154,0.326,0.293,0.521,0.406
		c9.227,5.412,21.804,17.943,26.759,24.549c0.83,1.105,2.398,1.326,3.5,0.5c1.104-0.83,1.328-2.396,0.5-3.5
		C766.584,291.876,756.656,281.632,747.563,275.001z M739.378,272.429c-0.539-8.968-0.162-17.548,2.779-20.784
		c0.648-0.714,1.367-1.04,2.306-1.04c0.078,0,0.158,0.002,0.24,0.007c6.878,0.381,7.464,6.114,7.396,8.563
		c-0.161,5.882-4.301,12.231-10.707,12.233C740.579,271.407,739.839,271.8,739.378,272.429z"/>
	<path fill="#6FB347" d="M54.202,291.308c-7.822,4.286-17.167,4.91-26.312,1.762c-9.194-3.168-16.697-9.742-20.071-17.588
		c-5.465-12.709-3.196-36.505,8.893-51.673c5.741-7.204,16.051-15.153,32.556-12.134c1.359,0.248,2.661-0.65,2.909-2.009
		c0.249-1.358-0.65-2.661-2.009-2.909c-18.942-3.47-30.774,5.664-37.366,13.935C-0.834,237.8-2.785,263.479,3.226,277.458
		c3.921,9.117,12.533,16.722,23.037,20.339c4.377,1.507,8.803,2.256,13.134,2.256c6.053,0,11.92-1.463,17.208-4.36
		c1.211-0.664,1.655-2.183,0.991-3.394C56.932,291.089,55.413,290.646,54.202,291.308z"/>
	<path fill="#6FB347" d="M718.989,247.986c-1.021-0.377-1.938-0.33-2.729,0.135c-0.247,0.146-0.526,0.362-0.771,0.683
		c-0.317,0.31-0.558,0.704-0.676,1.155c-0.202,0.473-0.666,1.566-0.23,2.922c0.223,0.693,0.735,1.256,1.406,1.539
		c0.313,0.133,0.644,0.197,0.975,0.197c0.381,0,0.761-0.087,1.108-0.26c0.188-0.093,0.33-0.152,0.439-0.197
		c1.554-0.649,1.941-1.656,2.045-2.968c0.013-0.153,0.027-0.347,0.054-0.593C720.733,249.459,720.065,248.383,718.989,247.986z"/>
	<path fill="#6FB347" d="M500.693,258.215c-1.769-2.161-4.615-5.076-8.904-5.43c-0.254-0.021-0.5-0.054-0.746-0.084
		c-0.563-0.068-1.2-0.148-1.977-0.148c-1.545,0-3.232,0.33-5.294,1.037c-5.224,0.781-8.899,7.677-11.231,21.056
		c-0.043,0.25-0.075,0.438-0.098,0.555c-1.685,8.602,1.402,18.088,7.682,23.607c3.021,2.654,6.117,4.002,9.203,4.002
		c3.168,0,6.244-1.461,8.896-4.225c5.754-5.998,8.552-16.652,8.263-23.637C506.222,268.583,504.057,262.33,500.693,258.215z
		 M494.615,295.126c-3.453,3.596-7.066,3.549-11.189-0.072c-4.91-4.316-7.408-12.086-6.075-18.893
		c0.027-0.139,0.065-0.361,0.117-0.656c2.804-16.091,6.694-16.937,7.128-16.979c0.199-0.02,0.395-0.063,0.583-0.13
		c2.14-0.754,3.244-0.841,3.888-0.841c0.469,0,0.883,0.052,1.363,0.109c0.313,0.039,0.625,0.077,0.95,0.104
		c1.846,0.151,3.524,1.269,5.444,3.612c2.701,3.306,4.445,8.454,4.666,13.776C501.734,281.06,499.176,290.372,494.615,295.126z"/>
</g>
</svg>
