<?xml version="1.0" encoding="utf-8"?>
<!-- Generator: Adobe Illustrator 16.0.0, SVG Export Plug-In . SVG Version: 6.00 Build 0)  -->
<!DOCTYPE svg PUBLIC "-//W3C//DTD SVG 1.1//EN" "http://www.w3.org/Graphics/SVG/1.1/DTD/svg11.dtd">
<svg version="1.1" id="Calque_1" xmlns="http://www.w3.org/2000/svg" xmlns:xlink="http://www.w3.org/1999/xlink" x="0px" y="0px"
	 width="960px" height="560px" viewBox="0 0 960 560" enable-background="new 0 0 960 560" xml:space="preserve">
<g>
	<g>
		<path d="M27.271,293.465c0.39-15.081-3-30.439-4.679-45.393c-1.777-15.831-3.022-31.717-4.262-47.597
			c-0.862-11.038-1.688-22.076-2.702-33.1c-0.757-8.227-1.346-16.516-0.578-24.764c0.71-7.625,3.157-15.75,10.025-19.969
			c5.827-3.579,15.583-3.927,21.554-0.433c9.694,5.673,8.323,21.742,7.416,31.059c-2.289,23.505-10.157,46.622-17.712,68.861
			c-3.459,10.182-7.115,20.296-10.693,30.437c-2.237,6.341-4.732,12.748-6.166,19.333c-0.306,1.406,1.421,2.603,2.507,1.459
			c6.219-6.545,12.345-13.551,20.384-17.909c4.725-2.562,9.865-2.794,14.104,0.768c3.36,2.824,5.303,7.514,7.431,11.252
			c3.598,6.32,8.411,13.933,16.447,14.326c7.672,0.374,11.225-9.359,12.582-15.273c0.432-1.883-2.46-2.683-2.893-0.798
			c-1.007,4.391-2.521,9.167-6.292,11.97c-5.318,3.952-11.099-2.494-13.904-6.378c-4.522-6.26-6.877-14.285-13.401-18.882
			c-12.885-9.08-29.049,10.879-36.577,18.803c0.835,0.486,1.671,0.973,2.507,1.459c2.33-10.702,6.792-21.104,10.446-31.394
			c5.685-16.009,11.229-32.078,15.905-48.416c4.299-15.022,8.174-30.567,8.789-46.249c0.369-9.407-0.595-21.437-9.363-27.02
			c-8.547-5.442-22.568-2.991-29.244,4.256c-8.36,9.073-7.604,24.256-6.901,35.629c1.157,18.743,3.015,37.49,4.545,56.207
			c1.089,13.327,2.33,26.642,3.929,39.919c1.504,12.488,4.126,25.234,3.8,37.835C24.221,295.4,27.221,295.396,27.271,293.465
			L27.271,293.465z"/>
	</g>
</g>
<g>
	<g>
		<path d="M118.823,263.654c6.827,0.792,13.605,0.306,20.45,0.455c4.552,0.099,9.062,0.828,13.628,0.85
			c6.557,0.031,13.221-2.199,13.011-9.889c-0.193-7.067-7.05-13.084-12.165-17.001c-4.875-3.735-12.92-8.728-19.447-7.349
			c-17.204,3.634-23.741,26.82-23.406,41.989c0.47,21.243,21.567,24.924,38.757,22.203c1.906-0.302,1.094-3.192-0.798-2.893
			c-7.658,1.213-15.597,1.393-22.993-1.219c-8.484-2.995-11.803-10.738-11.989-19.14c-0.296-13.364,5.693-33.831,20.262-37.844
			c5.47-1.507,12.047,2.723,16.347,5.589c5.157,3.438,11.702,9.073,12.432,15.665c0.963,8.705-11.87,6.97-17.106,6.565
			c-8.988-0.695-18.026,0.058-26.983-0.98C116.903,260.431,116.925,263.434,118.823,263.654L118.823,263.654z"/>
	</g>
</g>
<g>
	<g>
		<path d="M175.685,291.136c7.451-12.51,15.234-24.14,20.384-37.871c5.175-13.799,8.236-28.327,11.078-42.75
			c5.659-28.72,11.333-58.949,7.686-88.316c-0.91-7.323-4.043-16.213-12.226-17.751c-9.475-1.78-19.247,7.928-24.702,14.392
			c-14.021,16.614-13.289,39.502-9.102,59.565c4.263,20.426,11.642,40.4,18.089,60.204c7.703,23.661,15.762,47.205,23.978,70.691
			c0.634,1.814,3.533,1.034,2.893-0.797c-10.811-30.906-21.317-61.918-31.179-93.141c-7.182-22.736-16.499-47.168-12.677-71.407
			c1.889-11.979,8.052-22.301,17.242-30.111c4.375-3.719,10.432-7.815,16.434-6.083c5.388,1.555,7.204,8.759,8.097,13.495
			c2.762,14.645,1.049,31.012-0.434,45.712c-1.572,15.577-4.621,30.878-7.676,46.213c-2.65,13.302-5.767,26.519-10.392,39.288
			c-4.905,13.54-12.78,24.896-20.082,37.155C172.102,291.288,174.696,292.796,175.685,291.136L175.685,291.136z"/>
	</g>
</g>
<g>
	<g>
		<path d="M214.259,311.284c18.526-16.791,31.332-38.645,41.192-61.395c4.95-11.42,9.095-23.175,12.832-35.042
			c3.104-9.859,6.422-19.95,8.442-30.099c1.347-6.771,1.64-13.858,1.129-20.729c-0.435-5.853-1.591-12.734-6.071-16.942
			c-4.305-4.043-11.391-2.435-15.55,0.979c-7.761,6.371-13.22,16.665-15.817,26.251c-2.51,9.265-1.224,19.337,0.069,28.679
			c1.486,10.736,3.455,21.285,6.438,31.713c3.021,10.561,6.744,20.982,10.653,31.243c4.052,10.636,8.481,21.095,10.626,32.33
			c0.362,1.899,3.253,1.093,2.893-0.797c-2.827-14.813-9.394-28.633-14.429-42.772c-5.129-14.405-9.715-28.955-12.031-44.106
			c-2.222-14.539-4.805-29.428,1.523-43.303c3.372-7.393,11.219-22.285,21.514-19.26c6.56,1.927,7.103,13.416,7.349,18.742
			c0.304,6.604-0.117,13.582-1.833,19.989c-6.539,24.406-13.924,48.614-24.809,71.482c-9,18.91-20.647,36.784-36.239,50.916
			C210.701,310.465,212.83,312.58,214.259,311.284L214.259,311.284z"/>
	</g>
</g>
<g>
	<g>
		<path d="M324.016,224.255c-9.198,5.313-10.501,17.468-9.01,27c1.894,12.107,14.024,20.174,26.017,17.602
			c10.977-2.354,13.048-18.854,11.101-27.709c-2.478-11.266-13.724-15.995-24.264-15.334c-1.921,0.12-1.933,3.121,0,3
			c8.707-0.545,17.231,2.368,20.709,10.983c3.084,7.64,1.17,21.185-6.529,25.509c-5.157,2.896-12.343,0.252-16.827-2.62
			c-4.443-2.846-6.366-7.287-7.314-12.228c-1.548-8.073-0.107-19.142,7.631-23.612C327.204,225.879,325.694,223.286,324.016,224.255
			L324.016,224.255z"/>
	</g>
</g>
<g>
	<g>
		<path d="M349.937,431.375c8.186,18.251,15.817,38.706,32.542,50.958c13.017,9.534,32.34,10.658,44.719-0.377
			c11.526-10.276,15.236-27.771,17.859-42.247c2.778-15.329,3.306-31.303,7.583-46.326c-0.914,0.12-1.828,0.239-2.742,0.358
			c9.718,13.144,16.587,28.324,25.72,41.89c8.371,12.435,19.781,27.921,35.651,30.532c33.058,5.438,35.354-47.784,36.427-68.528
			c1.222-23.62-0.104-47.211-0.821-70.82c-0.575-18.926,0.48-37.955,0.312-56.902c-0.21-23.662-0.912-47.317-1.587-70.969
			c-0.055-1.93-3.056-1.936-3,0c0.938,32.833,1.871,65.67,1.61,98.519c-0.14,17.626-0.068,35.007,0.526,52.611
			c0.625,18.504,0.817,37.061-0.536,55.537c-1.16,15.826-2.913,33.931-11.604,47.674c-4.628,7.319-12.688,11.274-21.353,9.849
			c-10.146-1.669-18.24-10.104-24.546-17.601c-13.719-16.311-21.633-36.297-34.208-53.306c-0.743-1.005-2.358-0.989-2.742,0.358
			c-3.795,13.327-4.56,27.491-6.709,41.137c-2.315,14.7-5.304,31.273-15.053,43.075c-11.09,13.426-30.596,12.195-43.993,2.944
			c-16.3-11.257-23.705-32.577-31.465-49.881C351.737,428.099,349.152,429.626,349.937,431.375L349.937,431.375z"/>
	</g>
</g>
<g>
	<g>
		<path d="M599.254,348.716c-6.886,10.976-9.654,25.484-10.096,38.25c-0.363,10.487,1.986,24.795,14.739,25.985
			c7.188,0.672,16.092-3.454,21.483-7.861c6.077-4.968,9.297-11.795,9.222-19.642c-0.151-15.788-13.405-30.47-27.931-35.063
			c-2.359-0.746-4.836-1.083-7.298-1.236c-1.933-0.12-1.921,2.88,0,3c15.396,0.959,28.542,14.281,31.734,28.967
			c3.431,15.786-11.859,29.543-27.211,28.836c-12.184-0.561-12.158-17.956-11.553-26.516c0.785-11.096,3.517-23.669,9.499-33.206
			C602.875,348.586,600.279,347.081,599.254,348.716L599.254,348.716z"/>
	</g>
</g>
<g>
	<g>
		<path d="M651.441,420.034c2.213-19.86,4.521-39.978-2.407-59.2c-0.349,0.615-0.698,1.229-1.048,1.845
			c5.753-1.944,11.438-4.033,17.287-5.684c6.4-1.806,15.109-4.389,21.545-1.524c8.865,3.946,3.259,12.117,1.359,18.245
			c-1.727,5.567,0.765,10.104,3.174,14.946c4.459,8.964,9.82,20.924,19.163,25.796c11.8,6.153,18.269-11.994,20.844-19.897
			c0.602-1.845-2.296-2.628-2.893-0.797c-1.971,6.047-4.899,16.434-11.908,18.656c-4.571,1.449-8.95-3.614-11.48-6.658
			c-3.642-4.38-6.421-9.525-9.062-14.545c-2.732-5.193-6.481-10.64-4.945-16.703c1.213-4.792,4.396-8.639,3.657-13.801
			c-0.733-5.118-6.685-8.772-11.402-9.194c-12.328-1.104-24.704,4.402-36.136,8.268c-0.728,0.246-1.337,1.043-1.048,1.845
			c6.841,18.979,4.482,38.809,2.3,58.403C648.228,421.955,651.229,421.935,651.441,420.034L651.441,420.034z"/>
	</g>
</g>
<g>
	<g>
		<path d="M740.764,439.247c12.332-35.237,28.865-68.778,39.944-104.514c10.371-33.451,20.386-75.663,2.398-108.34
			c-4.212-7.652-10.211-14.102-17.157-19.337c-0.378-0.285-1.136-0.288-1.514,0c-72.918,55.479-12.627,160.163,30.311,214.465
			c3.04,3.845,6.171,7.618,9.369,11.332c1.265,1.469,3.377-0.663,2.121-2.121c-27.087-31.46-50.562-68-63.979-107.454
			c-6.689-19.666-10.63-40.911-7.635-61.657c1.407-9.744,4.631-19.132,9.475-27.694c2.491-4.404,5.519-8.479,8.833-12.292
			c1.314-1.513,10.916-12.469,12.886-10.931c31.229,24.367,25.713,69.936,17.429,103.781
			c-9.413,38.455-26.059,74.482-40.567,111.155c-1.678,4.241-3.299,8.505-4.806,12.811
			C737.23,440.281,740.129,441.061,740.764,439.247L740.764,439.247z"/>
	</g>
</g>
<g>
	<g>
		<path d="M868.68,352.676c-34.28,0.545-30.463,48.493-6.528,61.726c9.114,5.04,20.928,4.606,28.725-2.522
			c8.388-7.668,11.17-20.481,12.747-31.216c3.546-24.143,1.227-49.216-2.1-73.246c-2.636-19.036-5.711-39.07-12.582-57.128
			c-0.579-1.522-2.944-1.386-2.946,0.399c-0.019,19.277-0.312,38.516,0.422,57.791c1.049,27.5,2.903,55.873,10.625,82.425
			c3.326,11.439,8.576,26.264,20.211,31.749c12.846,6.057,26.223-4.805,34.808-13.316c1.375-1.363-0.746-3.484-2.121-2.121
			c-6.897,6.838-16.777,15.639-27.387,13.977c-8.611-1.35-13.915-9.755-17.386-16.958c-5.317-11.036-7.945-23.417-10.055-35.407
			c-2.517-14.308-3.882-28.812-4.824-43.3c-1.624-24.95-1.317-49.861-1.293-74.838c-0.982,0.133-1.964,0.266-2.946,0.399
			c3.938,10.353,6.224,21.416,8.388,32.247c3.193,15.989,5.47,32.177,6.786,48.428c1.293,15.946,1.728,32.219-0.492,48.104
			c-1.521,10.874-4.424,24.478-13.817,31.427c-13.594,10.056-30.683-1.84-36.821-14.596c-8.091-16.813-3.357-40.672,18.588-41.021
			C870.612,355.646,870.615,352.645,868.68,352.676L868.68,352.676z"/>
	</g>
</g>
</svg>
