<?xml version="1.0" encoding="utf-8"?>
<!-- Generator: Adobe Illustrator 16.0.0, SVG Export Plug-In . SVG Version: 6.00 Build 0)  -->
<!DOCTYPE svg PUBLIC "-//W3C//DTD SVG 1.1//EN" "http://www.w3.org/Graphics/SVG/1.1/DTD/svg11.dtd">
<svg version="1.1" id="Calque_1" xmlns="http://www.w3.org/2000/svg" xmlns:xlink="http://www.w3.org/1999/xlink" x="0px" y="0px"
	 width="96px" height="96px" viewBox="0 0 96 96" enable-background="new 0 0 96 96" xml:space="preserve">
<g>
	<g>
		<path d="M23.803,24.379c-5.94,0.325-10.91,0.449-14.598,5.719c-3.562,5.089-4.627,12.148-5.086,18.185
			c-1.007,13.228,9.552,21.194,21.678,23.588c13.278,2.621,24.693-7.847,25.958-20.838c0.588-6.035-4.348-12.281-7.855-16.642
			c-2.068-2.571-4.423-4.941-7.366-6.466c-3.592-1.86-7.937-1.438-11.63-3.17c-1.74-0.816-3.265,1.77-1.514,2.591
			c4.849,2.273,10.642,1.643,14.799,5.329c3.689,3.271,6.606,7.514,8.882,11.855c3.042,5.802,1.127,11.38-2.203,16.583
			c-3.581,5.592-9.163,8.272-15.711,8.144c-10.257-0.202-21.84-7.584-22.111-18.4c-0.12-4.799,0.882-9.634,2.361-14.175
			c0.829-2.543,2.035-4.816,3.813-6.812c2.51-2.819,7.222-2.307,10.583-2.49C25.727,27.274,25.737,24.273,23.803,24.379
			L23.803,24.379z"/>
	</g>
</g>
<g>
	<g>
		<path d="M58.526,18.153c0.977,21.565,0.415,43.175,1.889,64.722c0.131,1.919,3.132,1.932,3,0
			c-1.474-21.546-0.912-43.156-1.889-64.722C61.439,16.227,58.439,16.218,58.526,18.153L58.526,18.153z"/>
	</g>
</g>
<g>
	<g>
		<path d="M63.147,64.193c5.947-6.596,10.135-14.411,14.436-22.122c4.828-8.654,10.389-16.871,15.155-25.564
			c0.93-1.697-1.661-3.21-2.591-1.514c-4.506,8.218-9.723,16.008-14.359,24.148c-4.509,7.916-8.617,16.114-14.762,22.931
			C59.735,63.504,61.85,65.633,63.147,64.193L63.147,64.193z"/>
	</g>
</g>
<g>
	<g>
		<path d="M69.266,54.579c4.741,6.125,8.728,12.659,11.783,19.782c0.761,1.773,3.345,0.244,2.591-1.514
			c-3.164-7.376-7.347-14.054-12.252-20.39C70.204,50.93,68.098,53.07,69.266,54.579L69.266,54.579z"/>
	</g>
</g>
</svg>
