<?xml version="1.0" encoding="utf-8"?>
<!-- Generator: Adobe Illustrator 16.0.0, SVG Export Plug-In . SVG Version: 6.00 Build 0)  -->
<!DOCTYPE svg PUBLIC "-//W3C//DTD SVG 1.1//EN" "http://www.w3.org/Graphics/SVG/1.1/DTD/svg11.dtd">
<svg version="1.1" id="Calque_1" xmlns="http://www.w3.org/2000/svg" xmlns:xlink="http://www.w3.org/1999/xlink" x="0px" y="0px"
	 width="46.133px" height="50px" viewBox="0 0 46.133 50" enable-background="new 0 0 46.133 50" xml:space="preserve">
<g>
	<g>
		<path fill="none" stroke="#000000" stroke-width="2" stroke-linecap="round" stroke-linejoin="round" stroke-miterlimit="10" d="
			M25.918,0.947c-0.061,4.354-0.029,43.418-0.034,48.105"/>
	</g>
	<path fill="none" stroke="#000000" stroke-width="2" stroke-linecap="round" stroke-linejoin="round" stroke-miterlimit="10" d="
		M26.396,23.583C31.016,18.308,35.412,8.916,38.879,3.5"/>
	<path fill="none" stroke="#000000" stroke-width="2" stroke-linecap="round" stroke-linejoin="round" stroke-miterlimit="10" d="
		M26.396,23.583c6.03,9.159,10.476,16.662,17.457,24.979"/>
</g>
<path fill="none" stroke="#000000" stroke-width="2" stroke-linecap="round" stroke-linejoin="round" stroke-miterlimit="10" d="
	M7.935,2.658C3.833,5.186,3.091,14.889,2.698,19.301c-0.383,4.293-0.631,8.813-0.193,13.12c0.337,3.315,1.461,18.56,10.797,15.649
	c3.891-1.213,5.67-8.098,6.291-12.645c1.211-8.853,2.088-19.784-1.613-27.848C15.981,3.229,13.458-0.314,7.935,2.658"/>
</svg>
