<?xml version="1.0" encoding="utf-8"?>
<!-- Generator: Adobe Illustrator 16.0.0, SVG Export Plug-In . SVG Version: 6.00 Build 0)  -->
<!DOCTYPE svg PUBLIC "-//W3C//DTD SVG 1.1//EN" "http://www.w3.org/Graphics/SVG/1.1/DTD/svg11.dtd">
<svg version="1.1" id="Calque_1" xmlns="http://www.w3.org/2000/svg" xmlns:xlink="http://www.w3.org/1999/xlink" x="0px" y="0px"
	 width="595.281px" height="512px" viewBox="0 0 595.281 512" enable-background="new 0 0 595.281 512" xml:space="preserve">
<g>
	<path fill="#4DAD60" d="M117.763,232.045c-0.665-9.927-1.352-20.192-2.788-29.643c-0.139-0.917-0.774-1.68-1.649-1.985
		c-0.877-0.306-1.848-0.101-2.526,0.531c-3.643,3.39-5.908,7.896-8.099,12.252c-1.6,3.183-3.13,6.226-5.105,8.729
		c-2.728-2.873-4.95-6.473-7.278-10.248c-1.7-2.754-3.457-5.603-5.448-8.169c-0.649-0.836-1.755-1.173-2.76-0.841
		c-1.005,0.332-1.692,1.262-1.715,2.32c-0.197,9.272,0.407,18.696,0.99,27.809c0.506,7.897,1.029,16.063,1.026,24.08
		c0,1.381,1.119,2.501,2.5,2.501h0c1.38,0,2.5-1.119,2.5-2.499c0.002-8.178-0.526-16.425-1.037-24.401
		c-0.405-6.323-0.819-12.797-0.964-19.228c0.216,0.349,0.433,0.701,0.651,1.055c2.89,4.683,5.877,9.525,10.048,13.107
		c0.987,0.848,2.457,0.797,3.382-0.115c3.398-3.345,5.573-7.67,7.676-11.854c1.177-2.341,2.317-4.61,3.625-6.641
		c0.914,7.646,1.454,15.717,1.98,23.574c0.558,8.326,1.134,16.935,2.149,24.822c0.162,1.261,1.238,2.181,2.477,2.181
		c0.106,0,0.214-0.007,0.322-0.021c1.369-0.176,2.336-1.43,2.16-2.799C118.887,248.828,118.315,240.296,117.763,232.045z"/>
	<path fill="#4DAD60" d="M140.417,221.369c-5.46-1.565-9.958,4.653-11.434,6.696c-0.809,1.119-0.558,2.682,0.561,3.491
		c1.12,0.81,2.682,0.558,3.491-0.561c2.453-3.393,4.699-5.195,6.006-4.819c1.642,0.47,4.414,4.617,6.2,16.46
		c-2.339-2.354-4.582-3.042-6.385-3.056c-3.478-0.058-6.655,2.463-8.25,6.499c-1.679,4.249-0.994,8.626,1.745,11.151
		c1.306,1.203,3.324,2.24,6.404,2.24c2.582,0,5.911-0.729,10.19-2.701c0.039,0,0.077-0.001,0.114-0.002
		c0.099-0.004,2.388-0.124,2.405-2.726c0.004-0.198-0.015-0.397-0.059-0.594C150.063,233.865,146.366,223.072,140.417,221.369z
		 M135.739,253.553c-1.365-1.258-1.208-3.804-0.483-5.637c0.657-1.664,2.006-3.337,3.543-3.337c0.005,0,0.011,0,0.017,0
		c1.711,0.014,4.347,2.204,6.934,8.134C141.016,254.709,137.35,255.038,135.739,253.553z"/>
	<path fill="#4DAD60" d="M214.137,229.619c-2.312-0.244-4.355,0.488-5.911,2.112c-5.83,6.083-3.709,24.227-0.809,43.878
		c0.648,4.392,1.208,8.185,1.293,10.134c0.059,1.342,1.166,2.391,2.496,2.391c0.037,0,0.074-0.001,0.111-0.002
		c1.379-0.061,2.449-1.229,2.388-2.607c-0.097-2.207-0.646-5.931-1.342-10.645c-0.625-4.236-1.503-10.186-2.115-16.225
		c5.236,0.627,9.6-0.937,12.33-4.453c3.262-4.202,3.827-10.84,1.404-16.52C221.987,233.003,218.398,230.064,214.137,229.619z
		 M218.629,251.135c-1.732,2.23-4.522,3.065-8.29,2.486c-0.129-0.02-0.257-0.03-0.384-0.03c-0.049,0-0.098,0.001-0.147,0.004
		c-0.588-8.3-0.378-15.895,2.028-18.405c0.486-0.506,1.003-0.678,1.781-0.599c3.412,0.357,5.169,3.652,5.767,5.053
		C221.088,243.642,220.778,248.367,218.629,251.135z"/>
	<path fill="#4DAD60" d="M245.849,229.781c-3.85-1.977-8.24-0.578-13.05,4.158c-0.984,0.968-0.996,2.551-0.027,3.535
		c0.968,0.984,2.551,0.996,3.535,0.027c2.132-2.099,5.121-4.37,7.258-3.273c3.032,1.557,4.786,8.645,5.187,14.533
		c-3.434-3.146-8.231-6.432-12.343-5.557c-1.917,0.41-4.394,1.857-5.307,6.421c-0.692,3.46,0.634,6.56,3.639,8.503
		c2.297,1.486,5.527,2.223,8.754,2.223c3.419-0.001,6.834-0.827,9.129-2.466c0.876-0.625,1.228-1.712,0.96-2.693
		C254.408,249.564,253.299,233.606,245.849,229.781z M237.455,253.931c-1.295-0.838-1.743-1.863-1.451-3.324
		c0.21-1.049,0.632-2.337,1.449-2.512c0.13-0.028,0.269-0.041,0.417-0.041c2.405,0,7.04,3.57,9.855,6.698
		C244.657,255.712,240.059,255.615,237.455,253.931z"/>
	<path fill="#4DAD60" d="M283.283,245.666c0.021-0.261,0.035-0.525,0.043-0.791c0.033-1.037-0.571-1.949-1.461-2.355
		c-3.142-9.265-10.234-12.854-15.858-11.569c-5.631,1.287-10.449,7.6-8.518,18.802c1.492,8.648,7.021,11.374,11.691,11.057
		c3.44-0.239,7.059-2.122,9.776-5.139c0.332,1.824,0.741,3.512,1.145,5.179c0.968,3.998,1.97,8.132,1.97,14.324
		c0,2.154-0.798,3.957-2.439,5.513c-3.467,3.284-10.279,4.988-18.225,4.558c-1.377-0.094-2.557,0.982-2.632,2.36
		c-0.075,1.379,0.982,2.558,2.361,2.632c0.912,0.05,1.811,0.074,2.694,0.074c8.248,0,15.165-2.134,19.24-5.994
		c2.618-2.479,4.001-5.641,4.001-9.143c0-6.79-1.073-11.219-2.11-15.501C283.952,255.51,282.998,251.571,283.283,245.666z
		 M268.833,255.82c-3.33,0.242-5.607-2.225-6.416-6.918c-1.376-7.977,1.371-12.316,4.704-13.078
		c0.386-0.088,0.786-0.133,1.193-0.133c3.364,0,7.295,3.026,9.128,9.435c0.134,0.468,0.393,0.867,0.729,1.17
		C277.27,251.662,272.788,255.545,268.833,255.82z"/>
	<path fill="#4DAD60" d="M315.594,252.197c-6.948,2.88-10.516,4.058-15.61-0.651c-1.171-1.082-2.329-2.986-3.099-5.135
		c7.326,2.06,10.53-1.454,11.61-3.165c2.182-3.457,1.578-8.394-1.373-11.239c-2.98-2.874-7.336-2.827-11.649,0.121
		c-2.659,1.816-4.204,4.676-4.468,8.271c-0.432,5.873,2.555,12.018,5.586,14.82c3.635,3.358,6.991,4.527,10.242,4.527
		c3.611,0,7.093-1.443,10.678-2.93c1.275-0.529,1.88-1.992,1.352-3.267C318.332,252.272,316.869,251.667,315.594,252.197z
		 M295.979,240.964c0.003-0.067,0.007-0.133,0.012-0.199c0.151-2.051,0.926-3.568,2.303-4.509c1.317-0.9,3.768-2.184,5.357-0.649
		c1.242,1.198,1.53,3.521,0.615,4.971c-1.085,1.719-3.806,1.917-7.466,0.546C296.529,241.021,296.252,240.97,295.979,240.964z"/>
	<path fill="#4DAD60" d="M371.671,229.857c-2.771,0.476-5.003,1.958-6.636,4.407c-6.421,9.63-1.974,32.258,2.699,52.711
		c0.545,2.381,1.015,4.438,1.32,5.952c0.239,1.187,1.282,2.006,2.447,2.006c0.164,0,0.33-0.016,0.497-0.05
		c1.354-0.272,2.229-1.591,1.956-2.944c-0.317-1.577-0.794-3.663-1.346-6.078c-1.563-6.842-4.014-17.564-5.156-27.461
		c4.932,1.613,10.415,0.06,15.111-4.404c5.027-4.778,8.762-13.063,5.78-19.006C386.661,231.631,382.394,228.016,371.671,229.857z
		 M379.121,250.373c-1.821,1.73-6.597,5.451-11.601,2.614c-0.184-0.104-0.375-0.182-0.569-0.236
		c-0.392-6.683,0.094-12.486,2.245-15.712c0.864-1.297,1.92-2.013,3.321-2.253c6.017-1.032,10.049-0.164,11.359,2.448
		C385.491,240.451,383.357,246.345,379.121,250.373z"/>
	<path fill="#4DAD60" d="M417.436,256.459c-2.582,1.932-5.895,0.887-7.637,0.092c-4.074-1.857-7.342-5.696-8.281-9.535
		c8.162,2.626,11.807-1.22,13.032-3.083c2.349-3.566,1.96-8.789-0.865-11.642c-2.452-2.476-6-2.609-9.489-0.358
		c-5.497,3.545-8.308,8.474-7.915,13.878c0.445,6.132,5.151,12.419,11.443,15.29c2.123,0.968,4.235,1.449,6.227,1.449
		c2.401,0,4.626-0.699,6.481-2.089c1.105-0.827,1.331-2.394,0.503-3.499C420.109,255.857,418.541,255.632,417.436,256.459z
		 M406.905,236.136c1.438-0.926,2.522-1.035,3.228-0.325c1.05,1.06,1.385,3.639,0.242,5.374c-1.347,2.045-4.374,2.273-8.522,0.644
		c-0.018-0.007-0.035-0.014-0.054-0.021C402.613,239.702,404.32,237.804,406.905,236.136z"/>
	<path fill="#4DAD60" d="M446.027,252.177c-2.108-1.544-4.035-2.955-5.869-4.493c3.688-2.045,5.534-5.93,5.457-9.603
		c-0.1-4.67-3.263-8.088-7.693-8.313c-3.161-0.164-4.965,1.22-5.924,2.407c-3.56,4.407-1.605,13.105,1.105,23.179
		c0.655,2.438,1.275,4.742,1.367,5.788c0.114,1.301,1.205,2.281,2.487,2.281c0.073,0,0.147-0.003,0.222-0.01
		c1.375-0.12,2.393-1.333,2.271-2.709c-0.13-1.483-0.743-3.763-1.52-6.649c-0.182-0.675-0.382-1.42-0.59-2.213
		c1.855,1.53,3.761,2.926,5.731,4.369c2.388,1.749,4.856,3.557,7.522,5.804c1.054,0.889,2.632,0.757,3.522-0.3
		c0.891-1.056,0.756-2.633-0.3-3.522C451.022,255.835,448.482,253.975,446.027,252.177z M435.57,244.031
		c-0.659-3.793-0.847-7.272,0.317-8.714c0.14-0.173,0.454-0.562,1.53-0.562c0.079,0,0.162,0.002,0.25,0.006
		c2.671,0.136,2.932,2.657,2.948,3.426C440.667,240.657,439.105,243.458,435.57,244.031z"/>
	<path fill="#4DAD60" d="M468.87,238.919c-4.563-1.455-4.61-1.981-4.279-3.138c0.076-0.265,0.253-0.885,1.4-1.203
		c1.601-0.446,3.694,0.106,4.324,0.694c1.012,0.943,2.593,0.888,3.534-0.122c0.941-1.009,0.887-2.591-0.122-3.533
		c-2.062-1.923-5.964-2.72-9.073-1.857c-2.481,0.688-4.211,2.338-4.87,4.646c-1.801,6.291,4.293,8.234,7.566,9.278
		c1.344,0.428,3.017,0.961,3.508,1.476c2.974,3.111,3.987,6.421,2.78,9.082c-1.267,2.792-4.718,4.41-9.015,4.223
		c-1.354-0.034-2.546,1.01-2.606,2.39c-0.06,1.379,1.01,2.546,2.39,2.606c0.296,0.013,0.589,0.019,0.88,0.019
		c5.979,0,10.877-2.7,12.905-7.173c2.063-4.548,0.673-10.007-3.719-14.602C473.1,240.269,470.95,239.583,468.87,238.919z"/>
	<path fill="#4DAD60" d="M513.539,238.631c-2.603-3.287-6.353-5.097-10.56-5.097c-0.524,0-1.01,0.163-1.411,0.438
		c-0.401-0.275-0.887-0.438-1.411-0.438c-4.207,0-7.957,1.81-10.56,5.097c-2.246,2.837-3.534,6.692-3.533,10.578
		c0.001,7.082,4.488,14.706,14.338,14.708c0.424,0,0.816-0.115,1.166-0.301c0.35,0.186,0.742,0.301,1.166,0.301
		c9.85-0.002,14.337-7.625,14.338-14.708C517.073,245.324,515.785,241.468,513.539,238.631z M502.733,258.917
		c-0.423,0-0.815,0.115-1.165,0.301c-0.35-0.186-0.742-0.301-1.165-0.301c-6.892-0.001-9.338-5.23-9.339-9.708
		c0-2.78,0.894-5.504,2.453-7.474c1.156-1.46,3.246-3.2,6.64-3.2c0.524,0,1.01-0.163,1.411-0.438
		c0.401,0.275,0.887,0.438,1.411,0.438c3.394,0,5.483,1.74,6.64,3.2c1.56,1.97,2.453,4.694,2.453,7.474
		C512.071,253.687,509.625,258.916,502.733,258.917z"/>
</g>
</svg>
