<?xml version="1.0" encoding="utf-8"?>
<!-- Generator: Adobe Illustrator 16.0.0, SVG Export Plug-In . SVG Version: 6.00 Build 0)  -->
<!DOCTYPE svg PUBLIC "-//W3C//DTD SVG 1.1//EN" "http://www.w3.org/Graphics/SVG/1.1/DTD/svg11.dtd">
<svg version="1.1" id="Calque_1" xmlns="http://www.w3.org/2000/svg" xmlns:xlink="http://www.w3.org/1999/xlink" x="0px" y="0px"
	 width="460.049px" height="100px" viewBox="0 206 460.049 100" enable-background="new 0 206 460.049 100" xml:space="preserve">
<g>
	<path fill="#4DAD60" d="M39.405,239.465c-0.701-10.457-1.424-21.271-2.937-31.227c-0.146-0.966-0.815-1.769-1.737-2.091
		c-0.924-0.322-1.947-0.106-2.662,0.56c-3.837,3.571-6.223,8.317-8.531,12.907c-1.686,3.353-3.298,6.558-5.378,9.195
		c-2.874-3.026-5.214-6.819-7.667-10.795c-1.791-2.901-3.642-5.902-5.739-8.606c-0.684-0.881-1.849-1.235-2.908-0.886
		c-1.059,0.35-1.782,1.33-1.807,2.444c-0.207,9.767,0.429,19.695,1.042,29.294c0.534,8.319,1.084,16.921,1.082,25.366
		c0,1.455,1.178,2.635,2.633,2.635l0,0c1.454,0,2.634-1.18,2.634-2.633c0.002-8.614-0.555-17.302-1.093-25.704
		c-0.427-6.661-0.862-13.48-1.015-20.255c0.228,0.368,0.456,0.739,0.686,1.111c3.044,4.934,6.191,10.034,10.585,13.808
		c1.04,0.893,2.588,0.839,3.563-0.122c3.58-3.523,5.871-8.08,8.086-12.487c1.24-2.466,2.44-4.856,3.818-6.996
		c0.963,8.055,1.532,16.557,2.086,24.833c0.588,8.771,1.195,17.84,2.264,26.147c0.171,1.328,1.305,2.298,2.609,2.298
		c0.112,0,0.226-0.008,0.34-0.021c1.441-0.186,2.46-1.507,2.275-2.948C40.589,257.146,39.986,248.157,39.405,239.465z"/>
	<path fill="#4DAD60" d="M63.269,228.219c-5.751-1.648-10.49,4.901-12.045,7.054c-0.853,1.179-0.588,2.825,0.591,3.678
		c1.18,0.853,2.826,0.588,3.678-0.591c2.584-3.574,4.95-5.473,6.327-5.077c1.729,0.495,4.65,4.864,6.531,17.339
		c-2.464-2.479-4.827-3.205-6.727-3.219c-3.664-0.062-7.01,2.594-8.69,6.846c-1.769,4.476-1.047,9.086,1.838,11.747
		c1.375,1.268,3.501,2.359,6.746,2.359c2.72,0,6.227-0.768,10.734-2.845c0.042,0,0.082-0.002,0.121-0.002
		c0.104-0.005,2.515-0.132,2.533-2.872c0.004-0.209-0.016-0.418-0.063-0.626C73.431,241.383,69.536,230.013,63.269,228.219z
		 M58.341,262.122c-1.438-1.325-1.272-4.007-0.509-5.938c0.692-1.753,2.114-3.515,3.732-3.515c0.006,0,0.012,0,0.018,0
		c1.802,0.014,4.58,2.322,7.305,8.568C63.9,263.34,60.039,263.687,58.341,262.122z"/>
	<path fill="#4DAD60" d="M140.928,236.91c-2.436-0.257-4.588,0.514-6.227,2.225c-6.142,6.408-3.907,25.521-0.852,46.223
		c0.683,4.626,1.272,8.621,1.362,10.675c0.063,1.413,1.229,2.519,2.629,2.519c0.039,0,0.078-0.001,0.117-0.002
		c1.453-0.065,2.58-1.295,2.516-2.746c-0.103-2.325-0.681-6.248-1.414-11.214c-0.659-4.462-1.583-10.731-2.228-17.093
		c5.516,0.661,10.113-0.986,12.989-4.69c3.436-4.426,4.031-11.418,1.479-17.402C149.197,240.475,145.417,237.378,140.928,236.91z
		 M145.66,259.575c-1.825,2.35-4.764,3.229-8.733,2.619c-0.136-0.021-0.271-0.032-0.404-0.032c-0.051,0-0.103,0.001-0.155,0.005
		c-0.619-8.744-0.398-16.744,2.136-19.389c0.512-0.533,1.057-0.714,1.876-0.631c3.594,0.376,5.445,3.847,6.075,5.323
		C148.25,251.682,147.924,256.66,145.66,259.575z"/>
	<path fill="#4DAD60" d="M174.334,237.081c-4.056-2.083-8.681-0.609-13.748,4.379c-1.037,1.02-1.049,2.688-0.028,3.724
		c1.02,1.037,2.688,1.049,3.724,0.028c2.246-2.211,5.395-4.604,7.646-3.448c3.194,1.64,5.042,9.107,5.464,15.31
		c-3.618-3.314-8.671-6.776-13.002-5.854c-2.02,0.432-4.629,1.956-5.591,6.764c-0.729,3.645,0.668,6.911,3.834,8.957
		c2.419,1.565,5.822,2.343,9.222,2.343c3.602-0.002,7.199-0.872,9.617-2.599c0.922-0.658,1.293-1.804,1.011-2.836
		C183.351,257.921,182.182,241.11,174.334,237.081z M165.492,262.521c-1.364-0.884-1.836-1.963-1.529-3.502
		c0.221-1.105,0.666-2.462,1.526-2.646c0.137-0.03,0.284-0.043,0.439-0.043c2.533,0,7.416,3.76,10.381,7.055
		C173.079,264.396,168.235,264.295,165.492,262.521z"/>
	<path fill="#4DAD60" d="M213.769,253.814c0.022-0.275,0.037-0.553,0.045-0.833c0.035-1.092-0.602-2.053-1.539-2.481
		c-3.31-9.76-10.781-13.541-16.706-12.187c-5.932,1.355-11.007,8.005-8.973,19.806c1.572,9.109,7.396,11.981,12.316,11.648
		c3.624-0.253,7.436-2.236,10.298-5.414c0.35,1.922,0.78,3.7,1.206,5.455c1.02,4.212,2.075,8.567,2.075,15.09
		c0,2.27-0.841,4.168-2.569,5.808c-3.652,3.459-10.828,5.254-19.198,4.802c-1.451-0.1-2.694,1.034-2.773,2.486
		s1.034,2.694,2.487,2.771c0.961,0.054,1.908,0.078,2.838,0.078c8.688,0,15.975-2.248,20.268-6.314
		c2.758-2.611,4.215-5.942,4.215-9.631c0-7.153-1.13-11.818-2.223-16.329C214.474,264.184,213.468,260.034,213.769,253.814z
		 M198.546,264.511c-3.508,0.255-5.906-2.344-6.759-7.288c-1.449-8.403,1.444-12.974,4.956-13.776
		c0.406-0.093,0.828-0.141,1.256-0.141c3.544,0,7.685,3.188,9.616,9.939c0.142,0.493,0.414,0.914,0.768,1.232
		C207.434,260.13,202.713,264.221,198.546,264.511z"/>
	<path fill="#4DAD60" d="M247.806,260.694c-7.319,3.033-11.078,4.274-16.443-0.687c-1.233-1.14-2.454-3.145-3.265-5.409
		c7.717,2.17,11.093-1.532,12.23-3.334c2.298-3.642,1.663-8.843-1.446-11.84c-3.14-3.027-7.728-2.978-12.271,0.127
		c-2.801,1.913-4.429,4.926-4.707,8.713c-0.455,6.187,2.692,12.66,5.885,15.612c3.829,3.537,7.365,4.769,10.789,4.769
		c3.805,0,7.472-1.521,11.249-3.087c1.343-0.558,1.98-2.099,1.425-3.441C250.69,260.773,249.149,260.136,247.806,260.694z
		 M227.143,248.861c0.003-0.07,0.007-0.14,0.013-0.209c0.159-2.161,0.975-3.758,2.426-4.75c1.388-0.948,3.969-2.301,5.644-0.684
		c1.308,1.262,1.611,3.709,0.647,5.237c-1.143,1.811-4.009,2.02-7.865,0.575C227.722,248.921,227.431,248.868,227.143,248.861z"/>
	<path fill="#4DAD60" d="M306.879,237.161c-2.918,0.501-5.271,2.063-6.99,4.643c-6.764,10.145-2.08,33.98,2.844,55.526
		c0.574,2.509,1.068,4.676,1.39,6.271c0.252,1.25,1.351,2.114,2.578,2.114c0.173,0,0.348-0.018,0.523-0.054
		c1.426-0.286,2.348-1.676,2.061-3.101c-0.334-1.662-0.836-3.859-1.418-6.402c-1.646-7.208-4.229-18.503-5.432-28.929
		c5.195,1.699,10.972,0.063,15.919-4.64c5.295-5.033,9.229-13.76,6.088-20.021C322.67,239.029,318.174,235.221,306.879,237.161z
		 M314.727,258.772c-1.918,1.823-6.948,5.742-12.221,2.754c-0.193-0.11-0.395-0.191-0.599-0.249
		c-0.414-7.04,0.099-13.152,2.365-16.551c0.909-1.366,2.022-2.121,3.497-2.374c6.339-1.087,10.587-0.173,11.966,2.579
		C321.438,248.321,319.189,254.53,314.727,258.772z"/>
	<path fill="#4DAD60" d="M355.089,265.184c-2.72,2.035-6.21,0.934-8.045,0.097c-4.292-1.956-7.734-6-8.724-10.044
		c8.598,2.767,12.438-1.285,13.729-3.248c2.475-3.756,2.064-9.259-0.912-12.264c-2.582-2.608-6.32-2.748-9.995-0.377
		c-5.791,3.734-8.752,8.927-8.338,14.62c0.468,6.459,5.426,13.083,12.054,16.107c2.236,1.019,4.462,1.525,6.561,1.525
		c2.528,0,4.873-0.735,6.826-2.2c1.165-0.87,1.402-2.522,0.53-3.687C357.905,264.55,356.253,264.313,355.089,265.184z
		 M343.995,243.775c1.515-0.975,2.656-1.09,3.4-0.342c1.105,1.117,1.459,3.834,0.255,5.661c-1.418,2.154-4.607,2.395-8.978,0.679
		c-0.019-0.008-0.036-0.015-0.057-0.022C339.475,247.532,341.272,245.532,343.995,243.775z"/>
	<path fill="#4DAD60" d="M385.208,260.673c-2.221-1.626-4.251-3.112-6.183-4.732c3.885-2.154,5.83-6.247,5.748-10.116
		c-0.105-4.919-3.438-8.52-8.104-8.757c-3.33-0.173-5.229,1.285-6.24,2.535c-3.749,4.643-1.691,13.805,1.164,24.417
		c0.69,2.568,1.344,4.995,1.44,6.098c0.12,1.37,1.269,2.402,2.62,2.402c0.077,0,0.155-0.003,0.233-0.011
		c1.448-0.126,2.521-1.404,2.393-2.854c-0.137-1.563-0.783-3.964-1.602-7.004c-0.191-0.712-0.402-1.496-0.621-2.332
		c1.954,1.612,3.961,3.083,6.037,4.603c2.516,1.843,5.115,3.747,7.924,6.115c1.11,0.936,2.772,0.796,3.71-0.317
		c0.938-1.111,0.797-2.773-0.315-3.709C390.47,264.526,387.794,262.567,385.208,260.673z M374.192,252.092
		c-0.694-3.996-0.894-7.661,0.333-9.18c0.148-0.182,0.479-0.592,1.612-0.592c0.083,0,0.171,0.002,0.263,0.006
		c2.814,0.144,3.089,2.799,3.106,3.609C379.562,248.538,377.916,251.488,374.192,252.092z"/>
	<path fill="#4DAD60" d="M409.271,246.707c-4.808-1.533-4.857-2.086-4.508-3.305c0.08-0.279,0.266-0.933,1.475-1.268
		c1.687-0.47,3.891,0.112,4.556,0.731c1.065,0.994,2.731,0.936,3.722-0.128c0.992-1.063,0.936-2.729-0.129-3.722
		c-2.171-2.026-6.282-2.865-9.557-1.957c-2.614,0.725-4.436,2.463-5.13,4.895c-1.897,6.627,4.521,8.674,7.97,9.773
		c1.416,0.451,3.179,1.012,3.695,1.555c3.133,3.277,4.2,6.764,2.929,9.567c-1.335,2.94-4.971,4.646-9.497,4.448
		c-1.427-0.035-2.682,1.063-2.745,2.518c-0.063,1.453,1.064,2.682,2.519,2.745c0.312,0.015,0.62,0.021,0.927,0.021
		c6.298,0,11.458-2.846,13.595-7.556c2.173-4.792,0.709-10.542-3.919-15.383C413.727,248.129,411.463,247.406,409.271,246.707z"/>
	<path fill="#4DAD60" d="M456.327,246.403c-2.743-3.463-6.693-5.369-11.124-5.369c-0.553,0-1.064,0.171-1.486,0.461
		c-0.423-0.29-0.936-0.461-1.486-0.461c-4.433,0-8.383,1.906-11.125,5.369c-2.366,2.988-3.723,7.05-3.722,11.144
		c0.001,7.46,4.728,15.491,15.104,15.493c0.446,0,0.859-0.121,1.229-0.317c0.368,0.196,0.78,0.317,1.229,0.317
		c10.375-0.002,15.103-8.032,15.104-15.493C460.05,253.454,458.693,249.392,456.327,246.403z M444.943,267.772
		c-0.446,0-0.858,0.122-1.227,0.317c-0.369-0.195-0.782-0.317-1.228-0.317c-7.261-0.001-9.837-5.509-9.838-10.226
		c0-2.929,0.941-5.798,2.583-7.874c1.218-1.538,3.42-3.371,6.996-3.371c0.551,0,1.063-0.171,1.486-0.461
		c0.422,0.29,0.934,0.461,1.486,0.461c3.575,0,5.775,1.833,6.994,3.371c1.644,2.075,2.584,4.945,2.584,7.874
		C454.78,262.264,452.204,267.771,444.943,267.772z"/>
</g>
</svg>
