<?xml version="1.0" encoding="utf-8"?>
<!-- Generator: Adobe Illustrator 16.0.0, SVG Export Plug-In . SVG Version: 6.00 Build 0)  -->
<!DOCTYPE svg PUBLIC "-//W3C//DTD SVG 1.1//EN" "http://www.w3.org/Graphics/SVG/1.1/DTD/svg11.dtd">
<svg version="1.1" id="Calque_1" xmlns="http://www.w3.org/2000/svg" xmlns:xlink="http://www.w3.org/1999/xlink" x="0px" y="0px"
	 width="248.25px" height="50px" viewBox="0 0 248.25 50" enable-background="new 0 0 248.25 50" xml:space="preserve">
<path fill="none" stroke="#4EAD61" stroke-width="2" stroke-linecap="round" stroke-linejoin="round" stroke-miterlimit="10" d="
	M2.971,48.915C2.974,33.595,1.56,18.336,1.775,3.188c3.022,5.799,5.127,13.368,8.799,18.061c3.752-5.498,4.897-14.724,8.75-20.061
	c1.555,15.23,1.605,32.704,2.904,47.73"/>
<g>
	<path fill="none" stroke="#4EAD61" stroke-width="2" stroke-linecap="round" stroke-linejoin="round" stroke-miterlimit="10" d="
		M25.749,48.909c1.463-11.857,1.922-19.797,3.029-27.978c0.873-6.464,1.193-13.471,2.984-19.736
		c4.038,10.006,3.682,21.662,5.888,32.023c0.829,3.896,1.685,10.053,3.107,15.525"/>
	<path fill="none" stroke="#4EAD61" stroke-width="2" stroke-linecap="round" stroke-linejoin="round" stroke-miterlimit="10" d="
		M28.952,25.512c3.531-0.459,4.161-0.303,7.063-0.918"/>
</g>
<g>
	<path fill="none" stroke="#4EAD61" stroke-width="2" stroke-linecap="round" stroke-linejoin="round" stroke-miterlimit="10" d="
		M76.311,48.908c1.463-11.857,1.922-19.797,3.029-27.977c0.873-6.464,1.193-13.471,2.984-19.736
		c4.038,10.006,3.682,21.662,5.888,32.022c0.829,3.896,1.685,10.053,3.107,15.525"/>
	<path fill="none" stroke="#4EAD61" stroke-width="2" stroke-linecap="round" stroke-linejoin="round" stroke-miterlimit="10" d="
		M79.514,25.512c3.531-0.459,4.161-0.303,7.063-0.918"/>
</g>
<path fill="none" stroke="#4EAD61" stroke-width="2" stroke-linecap="round" stroke-linejoin="round" stroke-miterlimit="10" d="
	M65.795,49.128c-2.058-9.145-1-19.125-1-28.538c0-5.4-0.329-13.779-0.334-19.179c0-1.386,14.932-0.081,11.272,13.216
	c-0.892,3.242-2.825,6.413-6.063,7.514c-1.377,0.468-4.039,0.061-4.875-1.551"/>
<path fill="none" stroke="#4EAD61" stroke-width="2" stroke-linecap="round" stroke-linejoin="round" stroke-miterlimit="10" d="
	M154.095,49.128c-2.058-9.145-1-19.125-1-28.538c0-5.4-0.329-13.779-0.334-19.179c0-1.386,14.932-0.081,11.272,13.216
	c-0.892,3.242-2.825,6.413-6.063,7.514c-1.377,0.468-4.039,0.061-4.875-1.551"/>
<g>
	<path fill="none" stroke="#4EAD61" stroke-width="2" stroke-linecap="round" stroke-linejoin="round" stroke-miterlimit="10" d="
		M109.835,2.813c-4.989-4.315-10.555,0.579-12.479,3.672c-3.839,6.168-4.224,20.169-2.973,28.333
		c1.315,8.586,5.705,14.125,11.77,14.125c5.108,0,7.51-8.37,7.207-13.945"/>
	<path fill="none" stroke="#4EAD61" stroke-width="2" stroke-linecap="round" stroke-linejoin="round" stroke-miterlimit="10" d="
		M109.597,34.315c1.724,0,4.987,0.457,6.653-0.217"/>
</g>
<g>
	<path fill="none" stroke="#4EAD61" stroke-width="2" stroke-linecap="round" stroke-linejoin="round" stroke-miterlimit="10" d="
		M119.515,1.681c-0.225,11.947-0.611,24.058,0.203,36.014c0.229,3.328-0.139,7.506,0.797,10.625"/>
	<g>
		<path fill="none" stroke="#4EAD61" stroke-width="2" stroke-linecap="round" stroke-linejoin="round" stroke-miterlimit="10" d="
			M119.515,1.914c0.723-0.774,10.584-0.37,13.271-0.278"/>
		<path fill="none" stroke="#4EAD61" stroke-width="2" stroke-linecap="round" stroke-linejoin="round" stroke-miterlimit="10" d="
			M119.349,25.404c1.943,0,5.492,0,7.438,0"/>
		<path fill="none" stroke="#4EAD61" stroke-width="2" stroke-linecap="round" stroke-linejoin="round" stroke-miterlimit="10" d="
			M120.515,48.553c4.209,0,7.459-0.24,10.834-0.598"/>
	</g>
</g>
<g>
	<path fill="none" stroke="#4EAD61" stroke-width="2" stroke-linecap="round" stroke-linejoin="round" stroke-miterlimit="10" d="
		M167.421,2.223c-0.225,11.891-0.611,23.943,0.203,35.843c0.229,3.313-0.139,7.47,0.797,10.575"/>
	<g>
		<path fill="none" stroke="#4EAD61" stroke-width="2" stroke-linecap="round" stroke-linejoin="round" stroke-miterlimit="10" d="
			M167.421,2.454c0.723-0.77,10.584-0.368,13.271-0.276"/>
		<path fill="none" stroke="#4EAD61" stroke-width="2" stroke-linecap="round" stroke-linejoin="round" stroke-miterlimit="10" d="
			M167.255,25.833c1.943,0,5.492,0,7.438,0"/>
		<path fill="none" stroke="#4EAD61" stroke-width="2" stroke-linecap="round" stroke-linejoin="round" stroke-miterlimit="10" d="
			M168.421,48.87c4.209,0,7.459-0.237,10.834-0.593"/>
	</g>
</g>
<path fill="none" stroke="#4EAD61" stroke-width="2" stroke-linecap="round" stroke-linejoin="round" stroke-miterlimit="10" d="
	M186.546,48.391c-1.179-12.348-0.865-25.04-1.852-37.406c-0.125-1.557-1.33-7.829-0.235-8.981c0.833-0.878,3.536-0.642,4.441-0.313
	c2.585,0.94,6.048,2.853,6.548,6.294c0.537,3.695,0.755,8.005-1.875,10.963c-1.364,1.532-5.595,2.558-7.671,2.247
	c5.408,8.343,7.655,17.434,13.065,27.516"/>
<path fill="none" stroke="#4EAD61" stroke-width="2" stroke-linecap="round" stroke-linejoin="round" stroke-miterlimit="10" d="
	M217.522,3.737c-5.135-4.299-14.57-2.011-14.942,4.511c-0.224,3.907,1.251,8.087,3.735,10.74c2.846,3.04,6.474,4.477,9.62,7.398
	c4.854,4.509,5.202,13.769,0.343,18.538c-3.057,3-8.404,4.148-14.133,3.428"/>
<path fill="none" stroke="#4EAD61" stroke-width="2" stroke-linecap="round" stroke-linejoin="round" stroke-miterlimit="10" d="
	M228.279,2.711c-4.102,2.527-4.844,12.231-5.237,16.643c-0.383,4.293-0.63,8.812-0.193,13.12c0.337,3.316,1.461,18.561,10.797,15.65
	c3.891-1.213,5.669-8.098,6.291-12.645c1.21-8.852,2.088-19.784-1.613-27.848C236.327,3.28,233.803-0.262,228.279,2.711"/>
</svg>
