<?xml version="1.0" encoding="utf-8"?>
<!-- Generator: Adobe Illustrator 16.0.0, SVG Export Plug-In . SVG Version: 6.00 Build 0)  -->
<!DOCTYPE svg PUBLIC "-//W3C//DTD SVG 1.1//EN" "http://www.w3.org/Graphics/SVG/1.1/DTD/svg11.dtd">
<svg version="1.1" id="Calque_1" xmlns="http://www.w3.org/2000/svg" xmlns:xlink="http://www.w3.org/1999/xlink" x="0px" y="0px"
	 width="651px" height="512px" viewBox="0 0 651 512" enable-background="new 0 0 651 512" xml:space="preserve">
<g>
	<path fill="#40B397" d="M195.306,98.784c-21.001-14.227-55.75-12.464-79.221-3.373c-1.803,0.698-2.698,2.726-2,4.528
		c0.698,1.803,2.726,2.699,4.528,2c4.563-1.768,9.66-3.239,15.032-4.338c0.69,23.225,0.712,47.151,0.725,72.41
		c0.005,8.774,0.012,17.6,0.047,26.441c-0.457-0.13-0.915-0.242-1.371-0.384c-1.847-0.577-3.808,0.456-4.382,2.301
		c-0.575,1.845,0.456,3.808,2.301,4.382c1.16,0.361,2.324,0.677,3.49,0.97c0.25,40.984,1.325,82.121,6.249,120.024
		c0.229,1.764,1.734,3.049,3.466,3.049c0.15,0,0.302-0.01,0.455-0.029c1.917-0.249,3.269-2.005,3.02-3.922
		c-4.818-37.092-5.917-77.47-6.182-117.772c2.756,0.371,5.513,0.567,8.255,0.566c12.962-0.001,25.595-4.119,36.308-12.091
		c17.784-13.231,27.837-34.731,27.583-58.985C213.448,119.158,207.119,106.786,195.306,98.784z M181.848,187.931
		c-11.751,8.742-26.115,12.225-40.425,10.048c-0.041-9.353-0.047-18.691-0.052-27.973c-0.014-25.667-0.035-49.961-0.757-73.594
		c17.966-2.473,37.716-0.673,50.767,8.168c9.968,6.751,15.092,16.863,15.229,30.055C206.84,156.625,197.815,176.05,181.848,187.931z
		"/>
	<path fill="#40B397" d="M198.978,228.773c-2.112-0.335-3.43,0.532-4.028,1.076c-0.599,0.544-1.584,1.775-1.457,3.908
		c0.111,1.859,1.653,3.292,3.49,3.292c0.07,0,0.141-0.002,0.212-0.006c1.187-0.071,2.2-0.725,2.777-1.667
		c0.991-0.485,1.737-1.43,1.921-2.603C202.192,230.864,200.887,229.073,198.978,228.773z"/>
	<path fill="#40B397" d="M281.335,248.776c-8.869-5.302-19.631-5.944-30.303-1.808c-13.318,5.163-24.855,17.229-28.707,30.025
		c-3.911,12.994-3.198,23.458,2.119,31.101c9.695,13.937,31.784,15.326,49.532,16.443c1.583,0.1,3.126,0.196,4.614,0.3
		c0.083,0.006,0.166,0.009,0.247,0.009c1.822,0,3.359-1.411,3.488-3.257c0.134-1.928-1.32-3.601-3.248-3.734
		c-1.503-0.105-3.062-0.203-4.662-0.304c-16.245-1.022-36.461-2.294-44.225-13.455c-4.036-5.8-4.427-14.24-1.163-25.085
		c3.263-10.838,13.122-21.092,24.534-25.516c6.096-2.362,15.239-4.057,24.181,1.289c1.658,0.991,3.808,0.451,4.8-1.208
		C283.535,251.917,282.994,249.768,281.335,248.776z"/>
	<path fill="#40B397" d="M306,260.171c0.114-11.44-0.076-23.016-0.26-34.211c-0.083-5.021-0.162-10.095-0.218-15.194
		c11.788-0.16,21.805-1.535,29.917-4.155c1.839-0.594,2.849-2.567,2.254-4.406c-0.594-1.839-2.564-2.848-4.406-2.255
		c-7.478,2.416-16.788,3.688-27.821,3.837c-0.05-9.854,0.042-19.773,0.483-29.604c0.086-1.931-1.409-3.567-3.339-3.654
		c-1.951-0.09-3.567,1.408-3.654,3.339c-0.447,9.949-0.54,19.952-0.491,29.875c-8.322-0.224-17.505-1.014-27.532-2.376
		c-0.429-0.262-0.922-0.436-1.455-0.492c-3.922-0.417-5.517-0.413-6.717,1.287c-0.732,1.036-0.846,2.387-0.297,3.531
		c0.835,1.743,2.455,1.949,3.281,2.008c12.007,1.777,22.94,2.785,32.776,3.033c0.056,5.151,0.137,10.274,0.22,15.342
		c0.183,11.149,0.372,22.678,0.259,34.025c-0.07,7.018,0.846,29.385,1.128,36.073c0.301,7.145,0.627,14.229,0.894,19.437
		c0.525,10.27,0.525,10.27,2.159,11.313c0.572,0.365,1.228,0.551,1.887,0.551c0.513,0,1.026-0.112,1.503-0.339
		c1.505-0.716,2.264-2.366,1.913-3.926C308.04,318.958,305.9,270.192,306,260.171z"/>
	<path fill="#40B397" d="M379.17,303.773c-1.067-4.925-1.521-10.677-1.991-16.644c-0.902-11.454-1.836-23.299-7.508-31.392
		c-5.222-7.447-12.1-11.329-18.412-10.366c-4.181,0.634-9.868,3.585-13.226,14.049c-0.59,1.841,0.423,3.812,2.264,4.402
		c1.841,0.585,3.812-0.423,4.402-2.264c1.764-5.5,4.467-8.791,7.609-9.267c3.558-0.538,8.022,2.318,11.63,7.463
		c4.575,6.529,5.433,17.405,6.262,27.924c0.061,0.76,0.12,1.521,0.182,2.283c-7.257-8.372-16.423-13.851-23.865-12.838
		c-4.851,0.656-12.861,4.586-12.02,23.521c0.827,18.637,10.731,23.713,16.563,25.08c1.77,0.415,3.591,0.604,5.425,0.604
		c10.783-0.001,21.957-6.534,25.019-12.071c0.436-0.789,0.535-1.674,0.346-2.487C381.229,309.068,380.317,306.385,379.17,303.773z
		 M352.657,318.91c-6.936-1.626-10.692-7.876-11.168-18.575c-0.255-5.741,0.181-15.49,5.967-16.273
		c0.3-0.041,0.607-0.061,0.926-0.061c7.16,0,18.636,10.135,24.173,22.189c0.494,2.104,1.102,4.107,1.861,5.969
		C370.868,316.021,360.895,320.847,352.657,318.91z"/>
	<path fill="#40B397" d="M402.855,189.265c-0.836-14.143-1.7-28.768-2.664-42.925c-0.132-1.929-1.81-3.395-3.73-3.254
		c-1.928,0.131-3.385,1.801-3.254,3.729c0.963,14.125,1.826,28.734,2.66,42.862c2.715,45.937,5.521,93.438,12.387,138.482
		c0.264,1.732,1.756,2.974,3.456,2.974c0.175,0,0.353-0.014,0.531-0.041c1.911-0.291,3.224-2.076,2.933-3.987
		C408.357,282.38,405.561,235.043,402.855,189.265z"/>
	<path fill="#40B397" d="M509.836,317.211c-9.021-29.136-37.237-56.044-62.505-70.917c9.741-7.382,17.621-17.654,25.261-27.631
		c2.481-3.24,4.824-6.3,7.183-9.191c1.222-1.498,0.997-3.703-0.501-4.924c-1.499-1.222-3.703-0.997-4.925,0.5
		c-2.425,2.974-4.8,6.076-7.314,9.359c-7.306,9.542-14.84,19.364-23.775,26.189c0.037-1.577,0.074-3.154,0.111-4.727
		c0.471-19.742,0.957-40.156-0.261-58.361c-0.129-1.929-1.811-3.376-3.726-3.259c-1.929,0.129-3.388,1.797-3.259,3.726
		c1.196,17.889,0.714,38.141,0.247,57.728c-0.785,33.001-1.599,67.127,5.164,94.346c0.396,1.593,1.823,2.657,3.394,2.657
		c0.279,0,0.563-0.034,0.847-0.104c1.876-0.466,3.02-2.364,2.553-4.24c-5.467-22.005-5.796-49.148-5.306-76.482
		c24.261,14.059,51.566,39.757,60.125,67.402c0.466,1.502,1.849,2.466,3.343,2.466c0.343,0,0.691-0.051,1.036-0.157
		C509.374,321.018,510.407,319.058,509.836,317.211z"/>
	<path fill="#40B397" d="M195.906,247.352c-1.928,0.14-3.377,1.816-3.237,3.744c0.851,11.733-0.023,23.731-0.869,35.333
		c-0.805,11.047-1.637,22.471-1.027,33.874c0.1,1.866,1.645,3.313,3.492,3.313c0.063,0,0.126-0.002,0.19-0.005
		c1.93-0.104,3.411-1.752,3.308-3.683c-0.587-10.961,0.229-22.16,1.019-32.99c0.863-11.853,1.756-24.108,0.868-36.349
		C199.51,248.661,197.841,247.203,195.906,247.352z"/>
</g>
</svg>
