<?xml version="1.0" encoding="utf-8"?>
<!-- Generator: Adobe Illustrator 16.0.0, SVG Export Plug-In . SVG Version: 6.00 Build 0)  -->
<!DOCTYPE svg PUBLIC "-//W3C//DTD SVG 1.1//EN" "http://www.w3.org/Graphics/SVG/1.1/DTD/svg11.dtd">
<svg version="1.1" id="Calque_1" xmlns="http://www.w3.org/2000/svg" xmlns:xlink="http://www.w3.org/1999/xlink" x="0px" y="0px"
	 width="651px" height="400.891px" viewBox="0 0 651 400.891" enable-background="new 0 0 651 400.891" xml:space="preserve">
<g>
	<path d="M136.518,17.246C101.891-6.21,44.71-3.354,6.126,11.595c-3.731,1.445-5.583,5.642-4.138,9.37
		c1.444,3.731,5.639,5.586,9.371,4.139c6.843-2.65,14.43-4.883,22.421-6.612c1.069,37.209,1.104,75.547,1.125,115.985
		c0.007,13.61,0.02,27.298,0.069,41.011c-0.073-0.024-0.146-0.041-0.219-0.063c-3.817-1.19-7.88,0.943-9.07,4.764
		c-1.189,3.817,0.943,7.878,4.763,9.068c1.531,0.478,3.066,0.906,4.603,1.31c0.42,66.375,2.2,132.973,10.179,194.394
		c0.474,3.649,3.588,6.31,7.174,6.31c0.311,0,0.625-0.02,0.941-0.061c3.968-0.516,6.766-4.149,6.25-8.116
		c-7.762-59.756-9.588-124.793-10.04-189.766c3.971,0.467,7.939,0.703,11.889,0.703c21.428-0.003,42.312-6.813,60.026-19.991
		c29.351-21.839,45.946-57.298,45.527-97.281C166.728,51.149,156.189,30.57,136.518,17.246z M112.821,162.413
		c-18.434,13.716-40.892,19.355-63.349,16.279c-0.062-14.785-0.072-29.551-0.08-44.225C49.37,93.172,49.335,54.058,48.2,15.996
		c28.526-3.711,59.593-0.711,80.194,13.243c15.782,10.691,23.896,26.728,24.116,47.667
		C152.879,112.206,138.413,143.372,112.821,162.413z"/>
	<path d="M141.863,228.618c-4.071-0.64-6.651,1.064-7.829,2.135c-1.178,1.071-3.119,3.479-2.878,7.593
		c0.226,3.85,3.417,6.819,7.225,6.819c0.142,0,0.287-0.004,0.43-0.012c2.3-0.137,4.286-1.328,5.512-3.078
		c1.854-1.056,3.227-2.912,3.581-5.186C148.52,232.939,145.815,229.233,141.863,228.618z"/>
	<path d="M276.497,261.383c-14.858-8.881-32.859-9.962-50.687-3.056c-22.102,8.568-41.251,28.61-47.651,49.874
		c-6.51,21.629-5.278,39.108,3.66,51.959c16.21,23.301,52.582,25.591,81.807,27.431c2.575,0.161,5.084,0.319,7.503,0.485
		c0.172,0.014,0.343,0.02,0.511,0.02c3.771,0,6.953-2.921,7.22-6.74c0.278-3.99-2.731-7.452-6.722-7.729
		c-2.452-0.172-4.994-0.331-7.603-0.495c-26.112-1.644-58.61-3.688-70.823-21.244c-6.286-9.037-6.851-22.33-1.68-39.51
		c5.18-17.21,20.859-33.503,39.015-40.54c9.603-3.722,23.994-6.399,38.016,1.979c3.435,2.057,7.88,0.935,9.935-2.5
		C281.051,267.883,279.931,263.434,276.497,261.383z"/>
	<path d="M317.405,281.279c0.186-18.646-0.124-37.498-0.423-55.729c-0.126-7.668-0.249-15.413-0.339-23.196
		c18.686-0.361,34.623-2.62,47.616-6.816c3.808-1.229,5.896-5.313,4.666-9.12c-1.229-3.809-5.307-5.891-9.121-4.664
		c-11.687,3.775-26.157,5.822-43.274,6.16c-0.064-15.511,0.098-31.109,0.792-46.567c0.179-3.998-2.916-7.381-6.911-7.563
		c-4.027-0.183-7.383,2.917-7.563,6.913c-0.703,15.691-0.869,31.458-0.807,47.104c-12.984-0.416-27.23-1.657-42.75-3.759
		c-0.823-0.451-1.749-0.75-2.741-0.854c-5.844-0.603-9.704-1.004-12.349,2.753c-1.51,2.146-1.743,4.939-0.607,7.306
		c1.704,3.549,5.075,4.021,6.562,4.133c18.98,2.812,36.317,4.43,51.999,4.895c0.092,7.894,0.216,15.743,0.343,23.515
		c0.298,18.141,0.605,36.896,0.421,55.348c-0.114,11.46,1.378,47.908,1.838,58.806c0.491,11.634,1.021,23.173,1.455,31.657
		c0.896,17.508,0.896,17.508,4.219,19.636c1.187,0.761,2.545,1.146,3.91,1.146c1.057,0,2.115-0.23,3.099-0.695
		c3.09-1.464,4.669-4.829,3.993-8.034C320.682,376.138,317.24,297.863,317.405,281.279z"/>
	<path d="M436.466,351.828c-1.702-7.896-2.434-17.177-3.19-26.804c-1.485-18.854-3.023-38.35-12.497-51.868
		c-8.844-12.614-20.605-19.15-31.469-17.519c-5.926,0.899-16.764,5.201-22.774,23.927c-1.223,3.809,0.875,7.888,4.684,9.109
		c3.808,1.225,7.891-0.871,9.111-4.683c2.685-8.364,6.645-13.347,11.15-14.029c5.137-0.752,11.988,3.739,17.434,11.509
		c7.112,10.15,8.548,27.324,9.865,44.033c-11.647-12.119-25.639-19.737-37.172-18.177c-8.417,1.142-22.327,7.84-20.903,39.892
		c1.393,31.354,18.235,39.938,28.15,42.265c3.076,0.723,6.229,1.052,9.388,1.052c18.197,0,36.592-10.916,41.879-20.467
		c0.002-0.002,0.002-0.002,0.004-0.004v-0.003c0,0,0.002-0.002,0.006-0.01c0,0,0.004-0.006,0.004-0.008
		c0-0.004,0.007-0.012,0.007-0.014c0.89-1.625,1.092-3.442,0.701-5.116C439.829,360.497,438.337,356.1,436.466,351.828z
		 M392.163,375.381c-10.532-2.473-16.247-12.163-16.986-28.805c-0.314-7.101-0.131-23.737,8.375-24.891
		c0.412-0.057,0.838-0.085,1.281-0.085c10.341,0,28.749,14.997,37.822,34.746c0.746,3.205,1.65,6.281,2.767,9.17
		C419.634,371.063,404.726,378.322,392.163,375.381z"/>
	<path d="M475.076,165.692c-1.36-23.013-2.769-46.81-4.336-69.847c-0.272-3.994-3.743-7.03-7.722-6.733
		c-3.988,0.271-7.005,3.727-6.733,7.717c1.563,22.977,2.969,46.736,4.327,69.72c4.423,74.833,8.994,152.212,20.186,225.633
		c0.546,3.585,3.634,6.152,7.152,6.152c0.362,0,0.729-0.026,1.1-0.083c3.956-0.604,6.672-4.297,6.07-8.252
		C484.029,317.237,479.479,240.197,475.076,165.692z"/>
	<path d="M649.177,373.663c-14.578-47.075-59.605-90.576-100.491-115.174c15.331-12.183,28.141-28.888,39.619-43.878
		c4.028-5.262,7.835-10.229,11.654-14.916c2.528-3.102,2.063-7.662-1.037-10.19c-3.105-2.526-7.664-2.065-10.191,1.039
		c-3.959,4.854-7.83,9.907-11.928,15.259c-11.129,14.53-22.58,29.46-35.868,40.334c0.033-1.468,0.067-2.937,0.103-4.399
		c0.767-32.176,1.559-65.447-0.429-95.154c-0.268-3.993-3.749-6.997-7.71-6.744c-3.992,0.267-7.013,3.719-6.745,7.711
		c1.943,29.054,1.193,60.525,0.399,93.841c-1.28,53.828-2.606,109.488,8.452,153.998c0.819,3.297,3.773,5.5,7.023,5.5
		c0.578,0,1.167-0.07,1.753-0.216c3.883-0.965,6.249-4.895,5.283-8.776c-8.68-34.934-9.368-77.966-8.642-121.464
		c38.644,22.993,81.362,63.762,94.912,107.515c0.964,3.107,3.825,5.104,6.918,5.104c0.709,0,1.432-0.104,2.146-0.325
		C648.221,381.541,650.359,377.482,649.177,373.663z"/>
	<path d="M136.515,258.848c-3.99,0.291-6.99,3.76-6.7,7.749c1.377,18.991-0.042,38.467-1.414,57.3
		c-1.314,18.033-2.672,36.679-1.674,55.342c0.208,3.862,3.404,6.855,7.228,6.855c0.13,0,0.262-0.004,0.393-0.01
		c3.995-0.216,7.06-3.626,6.847-7.622c-0.95-17.748,0.375-35.931,1.655-53.514c1.411-19.35,2.868-39.358,1.414-59.398
		C143.973,261.559,140.489,258.561,136.515,258.848z"/>
</g>
</svg>
