<?xml version="1.0" encoding="utf-8"?>
<!-- Generator: Adobe Illustrator 16.0.0, SVG Export Plug-In . SVG Version: 6.00 Build 0)  -->
<!DOCTYPE svg PUBLIC "-//W3C//DTD SVG 1.1//EN" "http://www.w3.org/Graphics/SVG/1.1/DTD/svg11.dtd">
<svg version="1.1" id="Calque_1" xmlns="http://www.w3.org/2000/svg" xmlns:xlink="http://www.w3.org/1999/xlink" x="0px" y="0px"
	 width="484.358px" height="300px" viewBox="0 106 484.358 300" enable-background="new 0 106 484.358 300" xml:space="preserve">
<g>
	<path fill="#40B397" d="M99.597,118.767c-25.677-17.395-68.164-15.24-96.862-4.125c-2.204,0.854-3.298,3.333-2.445,5.536
		c0.854,2.205,3.333,3.3,5.536,2.445c5.579-2.162,11.811-3.96,18.379-5.304c0.844,28.397,0.871,57.65,0.887,88.534
		c0.006,10.729,0.014,21.519,0.057,32.329c-0.559-0.159-1.119-0.296-1.676-0.47c-2.258-0.705-4.656,0.558-5.357,2.814
		c-0.704,2.255,0.558,4.655,2.813,5.357c1.418,0.441,2.842,0.828,4.268,1.186c0.306,50.11,1.62,100.407,7.641,146.751
		c0.28,2.156,2.12,3.728,4.237,3.728c0.183,0,0.37-0.012,0.557-0.035c2.344-0.306,3.997-2.452,3.692-4.796
		c-5.891-45.352-7.235-94.721-7.559-143.997c3.369,0.453,6.741,0.693,10.093,0.692c15.849-0.002,31.295-5.036,44.393-14.784
		c21.745-16.177,34.036-42.465,33.725-72.12C121.779,143.677,114.041,128.55,99.597,118.767z M83.142,227.764
		c-14.368,10.688-31.931,14.948-49.427,12.286c-0.05-11.436-0.057-22.853-0.063-34.202c-0.018-31.383-0.043-61.086-0.926-89.981
		c21.967-3.024,46.115-0.823,62.072,9.987c12.188,8.254,18.453,20.618,18.62,36.747C113.699,189.487,102.664,213.237,83.142,227.764
		z"/>
	<path fill="#40B397" d="M104.086,277.701c-2.582-0.41-4.194,0.65-4.925,1.315c-0.732,0.665-1.937,2.17-1.781,4.777
		c0.135,2.273,2.021,4.025,4.267,4.025c0.086,0,0.172-0.002,0.259-0.007c1.451-0.087,2.69-0.887,3.396-2.038
		c1.211-0.593,2.124-1.749,2.349-3.183C108.016,280.258,106.421,278.068,104.086,277.701z"/>
	<path fill="#40B397" d="M204.782,302.157c-10.844-6.482-24.002-7.267-37.05-2.21c-16.284,6.313-30.39,21.066-35.1,36.711
		c-4.782,15.887-3.91,28.682,2.59,38.026c11.854,17.041,38.862,18.739,60.562,20.104c1.936,0.122,3.822,0.239,5.641,0.367
		c0.102,0.007,0.203,0.011,0.302,0.011c2.228,0,4.107-1.725,4.265-3.982c0.164-2.357-1.614-4.402-3.971-4.564
		c-1.838-0.129-3.744-0.249-5.701-0.373c-19.862-1.249-44.58-2.805-54.073-16.451c-4.935-7.091-5.413-17.411-1.422-30.669
		c3.99-13.253,16.044-25.79,29.998-31.199c7.454-2.888,18.633-4.961,29.566,1.576c2.027,1.211,4.656,0.551,5.869-1.477
		C207.473,305.998,206.811,303.37,204.782,302.157z"/>
	<path fill="#40B397" d="M234.939,316.09c0.14-13.987-0.093-28.141-0.317-41.828c-0.102-6.14-0.198-12.343-0.266-18.578
		c14.412-0.196,26.66-1.877,36.579-5.081c2.249-0.726,3.483-3.138,2.756-5.387s-3.135-3.482-5.387-2.757
		c-9.144,2.954-20.527,4.509-34.017,4.691c-0.061-12.048,0.051-24.176,0.591-36.196c0.105-2.361-1.723-4.361-4.082-4.468
		c-2.386-0.11-4.362,1.722-4.468,4.083c-0.547,12.164-0.66,24.395-0.601,36.527c-10.175-0.274-21.403-1.24-33.662-2.905
		c-0.525-0.321-1.127-0.533-1.779-0.602c-4.795-0.51-6.746-0.505-8.212,1.574c-0.896,1.267-1.035,2.918-0.364,4.317
		c1.021,2.131,3.002,2.383,4.012,2.455c14.68,2.173,28.048,3.405,40.075,3.708c0.068,6.298,0.167,12.562,0.269,18.759
		c0.223,13.632,0.455,27.728,0.316,41.603c-0.086,8.58,1.034,35.928,1.379,44.104c0.368,8.735,0.766,17.396,1.094,23.766
		c0.641,12.557,0.641,12.557,2.639,13.832c0.7,0.446,1.502,0.673,2.308,0.673c0.626,0,1.253-0.136,1.837-0.414
		c1.84-0.875,2.768-2.894,2.339-4.8C237.434,387.968,234.818,328.342,234.939,316.09z"/>
	<path fill="#40B397" d="M324.403,369.402c-1.305-6.022-1.859-13.056-2.435-20.352c-1.102-14.004-2.245-28.486-9.18-38.383
		c-6.384-9.104-14.794-13.851-22.512-12.673c-5.111,0.774-12.065,4.383-16.17,17.177c-0.721,2.252,0.517,4.662,2.768,5.383
		c2.251,0.715,4.662-0.519,5.383-2.768c2.156-6.727,5.461-10.75,9.303-11.331c4.351-0.658,9.809,2.833,14.221,9.124
		c5.593,7.983,6.642,21.281,7.656,34.143c0.074,0.929,0.147,1.859,0.222,2.791c-8.873-10.236-20.08-16.936-29.179-15.696
		c-5.931,0.802-15.724,5.607-14.696,28.759c1.012,22.787,13.121,28.993,20.251,30.665c2.165,0.506,4.392,0.738,6.634,0.738
		c13.183-0.002,26.846-7.989,30.59-14.76c0.533-0.965,0.654-2.046,0.423-3.041C326.921,375.876,325.806,372.595,324.403,369.402z
		 M291.986,387.909c-8.481-1.988-13.073-9.63-13.655-22.711c-0.312-7.02,0.221-18.938,7.295-19.896
		c0.367-0.05,0.743-0.075,1.132-0.075c8.755,0,22.786,12.392,29.556,27.13c0.604,2.573,1.348,5.021,2.276,7.299
		C314.252,384.378,302.058,390.278,291.986,387.909z"/>
	<path fill="#40B397" d="M353.362,229.396c-1.022-17.292-2.078-35.174-3.257-52.484c-0.162-2.358-2.214-4.151-4.562-3.979
		c-2.356,0.16-4.139,2.202-3.979,4.56c1.178,17.27,2.233,35.132,3.253,52.406c3.319,56.167,6.75,114.245,15.145,169.319
		c0.322,2.117,2.147,3.636,4.226,3.636c0.214,0,0.433-0.017,0.649-0.05c2.337-0.355,3.942-2.539,3.586-4.874
		C360.09,343.245,356.67,285.367,353.362,229.396z"/>
	<path fill="#40B397" d="M484.166,385.832c-11.029-35.624-45.529-68.523-76.424-86.709c11.911-9.025,21.545-21.585,30.886-33.783
		c3.034-3.962,5.898-7.703,8.783-11.238c1.494-1.832,1.22-4.528-0.612-6.021c-1.833-1.494-4.527-1.219-6.022,0.611
		c-2.965,3.637-5.869,7.429-8.942,11.443c-8.933,11.667-18.145,23.676-29.069,32.021c0.045-1.929,0.091-3.856,0.136-5.779
		c0.576-24.139,1.171-49.098-0.318-71.357c-0.157-2.358-2.215-4.128-4.557-3.984c-2.358,0.158-4.143,2.197-3.984,4.556
		c1.462,21.873,0.872,46.634,0.302,70.583c-0.96,40.35-1.955,82.075,6.314,115.354c0.483,1.948,2.229,3.249,4.149,3.249
		c0.341,0,0.688-0.042,1.036-0.128c2.294-0.569,3.692-2.89,3.121-5.185c-6.684-26.903-7.086-60.091-6.487-93.512
		c29.663,17.19,63.048,48.609,73.514,82.411c0.569,1.837,2.261,3.015,4.087,3.015c0.419,0,0.845-0.062,1.268-0.192
		C483.601,390.486,484.864,388.091,484.166,385.832z"/>
	<path fill="#40B397" d="M100.331,300.416c-2.357,0.172-4.129,2.222-3.958,4.578c1.041,14.347-0.028,29.016-1.063,43.202
		c-0.984,13.507-2.001,27.475-1.255,41.416c0.123,2.281,2.011,4.051,4.27,4.051c0.077,0,0.154-0.003,0.232-0.006
		c2.359-0.128,4.171-2.142,4.045-4.504c-0.718-13.401,0.28-27.095,1.246-40.336c1.055-14.492,2.146-29.476,1.061-44.442
		C104.736,302.018,102.696,300.234,100.331,300.416z"/>
</g>
</svg>
