<?xml version="1.0" encoding="utf-8"?>
<!-- Generator: Adobe Illustrator 16.0.0, SVG Export Plug-In . SVG Version: 6.00 Build 0)  -->
<!DOCTYPE svg PUBLIC "-//W3C//DTD SVG 1.1//EN" "http://www.w3.org/Graphics/SVG/1.1/DTD/svg11.dtd">
<svg version="1.1" id="Calque_1" xmlns="http://www.w3.org/2000/svg" xmlns:xlink="http://www.w3.org/1999/xlink" x="0px" y="0px"
	 width="134.25px" height="50px" viewBox="0 0 134.25 50" enable-background="new 0 0 134.25 50" xml:space="preserve">
<path fill="none" stroke="#40B295" stroke-width="2" stroke-linecap="round" stroke-linejoin="round" stroke-miterlimit="10" d="
	M5.738,48.888c-2.058-9.145-1-19.125-1-28.538c0-5.4-0.329-13.779-0.334-19.179c0-1.386,14.932-0.081,11.272,13.216
	c-0.892,3.242-2.825,6.412-6.063,7.514c-1.377,0.468-4.039,0.061-4.875-1.551"/>
<g>
	<path fill="none" stroke="#40B295" stroke-width="2" stroke-linecap="round" stroke-linejoin="round" stroke-miterlimit="10" d="
		M24.818,2.19c-0.059,4.354-0.232,25.03,0.295,31.422c0.37,4.498,0.086,9.023,0.588,13.459"/>
	<path fill="none" stroke="#40B295" stroke-width="2" stroke-linecap="round" stroke-linejoin="round" stroke-miterlimit="10" d="
		M19.41,2.784c3.002-0.43,8.61-1.363,11.625-1.189"/>
	<path fill="none" stroke="#40B295" stroke-width="2" stroke-linecap="round" stroke-linejoin="round" stroke-miterlimit="10" d="
		M19.642,48.034c2.312,0.1,9.112-0.316,11.161-0.08"/>
</g>
<g>
	<path fill="none" stroke="#40B295" stroke-width="2" stroke-linecap="round" stroke-linejoin="round" stroke-miterlimit="10" d="
		M61.56,1.734c-0.059,4.439,0.005,41.562,0,46.343"/>
	<path fill="none" stroke="#40B295" stroke-width="2" stroke-linecap="round" stroke-linejoin="round" stroke-miterlimit="10" d="
		M53.75,1.734c3.002-0.438,14.985,0.008,18,0.186"/>
</g>
<path fill="none" stroke="#40B295" stroke-width="2" stroke-linecap="round" stroke-linejoin="round" stroke-miterlimit="10" d="
	M49.757,1.799C35.84-2.048,30.953,25.128,34.373,37.129c2.523,8.854,10.895,14.297,17.362,8.946"/>
<g>
	<path fill="none" stroke="#40B295" stroke-width="2" stroke-linecap="round" stroke-linejoin="round" stroke-miterlimit="10" d="
		M71.4,48.452c1.463-11.75,1.922-19.617,3.029-27.724c0.873-6.405,1.193-13.348,2.984-19.557c4.038,9.916,3.682,21.465,5.888,31.731
		c0.829,3.86,1.685,9.961,3.107,15.385"/>
	<path fill="none" stroke="#40B295" stroke-width="2" stroke-linecap="round" stroke-linejoin="round" stroke-miterlimit="10" d="
		M74.604,25.268c3.531-0.455,4.161-0.3,7.063-0.91"/>
</g>
<path fill="none" stroke="#40B295" stroke-width="2" stroke-linecap="round" stroke-linejoin="round" stroke-miterlimit="10" d="
	M89.667,1.337c0,5.25,0.332,22.092,0.657,26.807c0.378,5.487,0.806,11.088,1.518,16.499c0.164,1.241,0.2,2.644,1.159,3.163
	c0.997,0.542,10.705,0.668,13.749,0.164"/>
<g>
	<g>
		<path fill="none" stroke="#40B295" stroke-width="2" stroke-linecap="round" stroke-linejoin="round" stroke-miterlimit="10" d="
			M111.689,0.873c-0.059,4.354,0.005,43.189,0,47.878"/>
	</g>
	<path fill="none" stroke="#40B295" stroke-width="2" stroke-linecap="round" stroke-linejoin="round" stroke-miterlimit="10" d="
		M112.167,23.509c4.619-5.275,9.016-14.667,12.483-20.083"/>
	<path fill="none" stroke="#40B295" stroke-width="2" stroke-linecap="round" stroke-linejoin="round" stroke-miterlimit="10" d="
		M112.167,23.509c6.031,9.159,10.476,16.662,17.458,24.979"/>
</g>
</svg>
